<svg xmlns="http://www.w3.org/2000/svg" width="1389" height="477" viewBox="0 0 1389 477" fill="none">
<path d="M1251.39 444.627C1155.58 444.891 1059.78 445.335 964.064 445.432C950.722 445.432 937.254 445.043 924.217 441.27C919.982 440.049 916.65 438.786 919.718 432.945C921.106 430.35 920.662 426.604 920.495 423.413C919.413 403.586 894.379 375.698 874.552 372.076C868.346 370.925 866.222 373.256 868.54 379.222C870.956 385.41 873.886 391.404 876.649 397.467C877.885 400.173 877.649 401.782 874.094 401.74C872.039 401.74 869.929 402.268 867.902 402.462C858.002 403.419 855.198 401.186 853.615 391.182C852.079 381.377 851.124 371.49 850.755 361.573C850.541 358.388 851.423 355.226 853.254 352.61C861.518 340.48 865.072 325.755 863.251 311.194C862.223 301.634 857.697 294.059 847.978 290.895C846.993 290.715 846.078 290.26 845.341 289.582C844.604 288.905 844.074 288.032 843.813 287.066C841.466 279.879 838.606 272.858 836.093 265.727C834.288 260.565 832.094 255.598 832.775 249.715C834.732 232.733 838.648 215.791 830.359 198.961C827.207 192.551 826.082 190.276 818.946 192.537C815.447 193.647 812.073 195.312 808.338 195.312C806.089 195.312 804.284 194.744 805.77 191.497C812.962 175.68 810.574 158.864 810.074 142.366C809.963 138.759 811.143 130.42 801.938 133.972C800.855 134.388 800.341 133.154 800.077 132.418C797.564 125.412 792.496 126.341 787.012 127.992C768.962 133.417 750.843 138.62 731.794 139.869C701.249 141.867 670.842 141.159 640.949 133.764C631.424 131.405 621.928 128.478 614.847 120.583C617.082 119.459 618.706 120.389 620.4 120.944C662.053 134.194 704.497 139.689 748.136 133.875C758.882 132.488 769.712 131.225 779.598 126.494C789.705 121.652 790.441 113.549 781.555 106.625C774.946 101.492 767.088 99.6878 758.924 99.1745C750.76 98.6611 749.316 97.2598 749.399 89.0459C749.612 77.9549 749.2 66.8606 748.164 55.816C747.414 48.5734 742.207 41.3585 747.844 33.9772C748.177 33.5471 747.969 32.5897 747.844 31.9376C745.873 22.7803 740.611 13.9976 745.262 4.18813C745.396 3.73867 745.432 3.26549 745.367 2.80089C745.302 2.33629 745.137 1.89122 744.884 1.49607C744.631 1.10093 744.296 0.765009 743.901 0.511255C743.506 0.2575 743.061 0.0918799 742.596 0.0257156C739.625 -0.293403 739.541 2.42604 739.68 4.38238C740.041 9.34953 738.611 13.8588 737.098 18.4652C735.817 22.4385 735.345 26.6276 735.709 30.786C736.154 36.0306 740.985 42.2881 732.183 45.4654C731.489 45.7152 731.502 48.0045 731.253 49.3503C729.864 56.8982 730.253 64.5432 730.156 72.1604C730.058 79.7776 730.156 87.3255 730.156 95.4005C722.771 93.452 715.101 92.8179 707.497 93.5274C702.887 93.8466 702.29 92.14 702.248 88.1579C702.109 76.85 701.499 65.5422 701.068 54.2204C700.957 51.4454 701.165 47.9629 697.555 47.6854C691.627 47.2275 693.945 44.7717 695.445 41.8719C696.28 39.9914 696.819 37.9928 697.042 35.9474C698.277 28.011 693.432 19.8527 698.138 11.9302C699.18 10.1681 697.889 7.76782 695.264 7.36545C692.64 6.96309 691.321 8.51705 690.572 10.6121C689.994 11.8707 689.839 13.2817 690.127 14.6358C691.863 19.048 689.808 21.9339 686.892 24.8476C683.185 28.5521 681.519 33.6581 683.185 38.2228C685.226 43.7727 686.323 47.6993 680.908 52.0976C678.909 53.7348 679.2 58.6187 679.159 62.0319C679.159 68.0257 679.561 74.0196 679.867 80.069C680.367 89.8645 680.367 89.5315 670.509 90.0727C665.385 90.364 664.469 88.7823 664.65 83.9955C665.08 71.7719 664.816 59.5066 664.941 47.2553C664.941 41.9829 663.789 37.6401 657.582 36.4607C660.123 31.9931 662.053 27.9416 659.568 23.1132C657.86 19.8111 655.403 16.5228 658.332 12.3742C659.36 10.9868 658.332 8.78067 656.611 7.64294C655.653 7.03246 654.639 6.25546 653.459 7.15732C652.674 7.66676 652.075 8.41657 651.752 9.29448C651.429 10.1724 651.4 11.1312 651.668 12.0274C652.251 14.2889 652.792 16.1898 650.821 18.382C646.225 23.4046 646.919 28.8019 650.543 34.1575C651.432 35.4756 653.764 37.1545 650.307 38.1673C644.573 39.8462 644.018 44.3 644.24 49.1561C644.823 61.8515 645.42 74.533 644.795 87.2561C644.628 90.475 643.781 91.9735 640.519 93.0418C634.884 95.0052 629.38 97.3223 624.038 99.9792C617.596 103.059 610.82 106.001 609.418 114.256C609.057 116.393 607.516 115.782 606.28 115.935C597.783 117.003 593.548 122.539 591.313 130.184C588.147 140.951 587.717 151.968 588.453 163.081C588.605 165.398 588.605 168.076 591.507 168.631C594.409 169.186 595.422 166.467 596.061 164.344C597.45 159.751 598.421 154.992 599.754 150.372C602.087 142.366 606.336 140.438 613.805 143.796C620.886 146.959 624.024 153.438 627.37 159.779C633.007 170.38 637.922 171.892 648.433 165.87C653.986 162.679 659.36 159.016 664.802 155.534C667.25 153.781 670.177 152.82 673.188 152.78C676.199 152.74 679.151 153.624 681.644 155.312C686.753 158.406 691.904 161.527 697.278 164.108C715.147 172.655 721.589 173.182 732.1 157.712C732.397 157.354 732.717 157.016 733.057 156.699C744.04 145.239 749.719 144.129 764.283 150.525C780.056 157.462 784.277 156.63 796.731 144.392C797.356 143.782 797.869 142.852 799.508 143.796C799.508 146.224 799.438 148.943 799.508 151.663C799.883 164.552 796.536 177.539 799.896 190.304C800.799 193.786 799.772 195.437 797.481 197.241C791.421 201.85 784.57 205.315 777.265 207.467C750.219 216.055 722.325 219.108 694.126 220.37C666.885 221.591 640.227 218.761 614.541 209.076C606.211 205.927 597.977 202.25 589.549 199.253C581.83 196.478 579.067 198.212 577.054 206.093C576.528 208.331 576.162 210.602 575.957 212.892C575.762 214.89 574.929 215.403 572.902 215.597C561.073 216.721 555.713 221.73 553.186 233.634C552.034 239.046 552.687 244.124 558.157 246.649C563.627 249.174 566.613 244.776 569.459 241.168C574.166 235.188 575.79 227.807 578.123 220.259C583.614 223.607 588.59 227.734 592.896 232.511C597.061 237.172 601.226 241.862 605.53 246.385C614.874 255.917 626.023 258.29 638.519 253.822C643.091 252.272 647.51 250.308 651.723 247.953C664.511 240.516 676.715 240.391 689.211 248.91C696.727 253.835 705.057 257.391 713.814 259.414C726.449 262.563 733.252 260.482 738.889 249.701C746.622 234.814 758.327 228.667 774.655 231.206C788.456 233.371 798.897 228.431 807.227 217.595C810.865 212.85 814.78 208.202 819.932 204.928C821.875 203.679 824.319 202.291 826.388 203.54C828.457 204.789 827.318 207.383 827.096 209.312C825.624 221.98 824.902 234.606 827.276 247.245C830.275 263.215 823.889 277.506 809.963 285.998C803.211 289.969 795.893 292.888 788.261 294.655C763.27 300.941 737.709 302.508 712.078 303.618C670.897 305.408 630.522 302.023 591.674 286.969C581.635 283.056 571.486 279.241 560.684 277.659C551.562 276.271 548.424 278.699 547.785 288.023C547.369 294.003 547.161 300.011 546.869 306.06C546.786 307.892 547.049 309.196 544.092 309.529C535.539 310.528 533.776 313.372 535.762 322.113C536.581 325.846 537.219 330.688 542.051 330.799C546.508 330.896 546.216 326.123 547.341 322.988C547.808 321.934 548.09 320.807 548.174 319.658C547.98 314.108 550.396 313.178 555.394 314.69C578.759 321.837 602.816 326.488 627.162 328.565C660.143 331.074 693.293 330.275 726.115 326.179C757.744 322.446 787.637 313.012 816.363 299.387C823.18 296.154 830.248 293.379 838.12 293.088C841.202 292.963 842.507 293.615 842.98 296.986C845.604 315.773 846.367 334.684 846.992 353.595C847.145 358.021 842.23 360.533 837.995 358.507C835.809 357.274 833.716 355.882 831.733 354.344L830.012 356.051C834.815 361.421 840.189 364.709 847.728 360.102C848.043 370.426 849.017 380.719 850.644 390.918C853.115 404.515 856.378 406.874 870.401 405.514C873.081 405.265 876.704 402.642 878.384 406.208C879.926 409.483 877.982 413.021 875.871 415.92C871.887 421.276 866.152 424.245 860.141 426.757C840.133 435.081 818.96 438.286 797.661 440.451C756.133 444.683 714.508 444.294 672.938 441.727C636.117 439.438 599.352 436.275 564.127 423.829C555.797 420.901 547.841 417.294 541.121 411.494C530.013 401.949 532.068 390.682 545.647 385.549C546.914 384.996 548.236 384.577 549.59 384.3C570.028 381.095 587.272 371.674 602.892 358.326C610.945 351.389 615.18 352.111 623.719 358.881C630.05 363.876 636.215 368.885 644.142 371.521C649.476 373.423 655.141 374.221 660.792 373.868C666.444 373.515 671.965 372.018 677.021 369.468C679.908 368.08 682.658 366.346 685.434 364.723C703.678 354.039 708.205 354.344 725.06 367.498C731.78 372.742 738.056 378.597 745.706 382.566C760.979 390.544 772.725 388.115 783.596 374.823C790.705 366.138 796.092 355.801 806.464 350.168C806.922 349.239 807.394 348.323 807.852 347.393C803.409 347.726 800.244 350.404 797.161 353.234C791.691 358.285 787.776 364.626 783.277 370.425C770.615 386.548 759.396 388.462 742.249 376.835C734.252 371.396 726.893 365.028 719.048 359.353C710.135 352.915 700.749 352.513 691.169 357.966C688.392 359.575 685.615 361.143 682.838 362.766C662.012 374.879 647.072 373.727 628.259 358.507C615.069 347.837 610.876 347.476 597.602 358.507C584.579 369.343 570.375 377.238 553.547 380.124C550.825 380.595 548.155 381.333 545.578 382.33C538.705 384.966 532.388 388.435 531.249 396.662C530.166 404.418 534.54 409.802 540.094 414.311C548.077 420.804 557.421 424.731 567.085 427.88C596.908 437.593 627.759 441.256 658.86 443.448C712.689 447.236 766.463 448.401 820.043 440.34C836.454 437.87 852.671 434.36 867.485 426.465C875.024 422.428 881.606 417.35 881.661 407.651C881.661 404.474 883.299 404.501 885.646 404.724C893.296 405.473 898.308 409.358 901.127 416.573C903.793 423.385 905.292 430.947 910.596 436.316C913.748 439.48 912.54 441.034 909.874 443.129C900.419 450.566 889.311 454.34 877.857 457.004C826.652 469.13 774.572 472.141 722.38 473.528C682.852 474.555 643.337 473.861 603.92 469.629C577.067 466.757 550.396 463.15 524.39 455.616C510.617 451.634 497.399 446.403 486.111 437.149C482.862 434.485 482.127 432.861 486.583 430.447C494.831 425.993 498.982 418.251 500.954 409.427C501.801 405.363 503.557 401.543 506.092 398.253C508.626 394.964 511.872 392.29 515.588 390.433C522.106 387.006 528.445 383.25 534.581 379.18C542.912 373.464 546.078 366.97 544.051 361.601C542.023 356.231 532.402 352.499 524.057 353.498C523.599 353.498 523.155 353.706 522.669 353.776C500.954 357.216 477.309 379.943 471.811 402.42C470.339 408.713 470.339 415.261 471.811 421.554C472.644 425.508 478.447 429.06 475.046 432.653C472.435 435.428 467.007 435.428 462.827 436.732C461.73 437.052 460.62 437.385 459.495 437.62C426.284 444.433 392.559 445.376 358.848 445.945C242.039 447.874 125.217 446.681 8.40814 446.986C6.56152 446.986 4.71491 446.986 2.85442 446.986C1.46599 446.986 -0.102947 446.833 0.244161 449.109C1.99358 450.691 4.17342 449.927 6.14499 449.913C136.81 449.081 267.517 452.244 398.154 447.361C424.646 446.375 451.165 444.586 476.503 435.65C477.302 435.243 478.217 435.12 479.095 435.301C479.973 435.483 480.764 435.958 481.335 436.649C491.929 447.208 505.258 452.855 519.212 457.156C562.822 470.559 607.904 474.499 653.098 476.123C720.173 478.551 787.123 476.248 853.532 465.301C870.998 462.415 889.006 459.834 904.043 450.038C912.901 444.267 919.982 442.449 930.423 445.501C943.877 449.442 958.344 448.748 972.451 448.692C1065.67 448.369 1158.89 448.031 1252.11 447.68C1297.46 447.532 1342.8 447.43 1388.1 447.374V444.6C1342.54 444.572 1296.96 444.581 1251.39 444.627ZM740.638 16.2453C742.124 25.1251 747.719 31.5074 742.318 39.9294C736.584 32.6313 738.445 25.4858 740.638 16.2453ZM692.21 23.8209C693.482 26.3187 694.205 29.0596 694.329 31.8595C694.454 34.6594 693.977 37.4535 692.932 40.0543C692.321 41.7331 691.766 44.0225 689.572 43.8421C687.378 43.6617 686.892 41.3724 686.378 39.6797C684.379 33.214 686.67 28.1498 692.21 23.8209ZM654.111 19.3809C657.221 24.2926 659.971 28.7048 654.611 34.3379C650.46 29.3846 648.474 24.7505 654.111 19.3809ZM615.471 108.804C623.802 101.936 633.938 98.9247 643.92 94.6652C644.378 101.089 644.74 106.806 645.225 112.522C645.323 113.826 645.295 115.463 647.086 115.796C649.321 116.213 649.988 114.284 650.265 112.883C651.654 105.709 655.819 98.2726 648.433 91.7376C647.669 91.0716 647.85 89.1292 647.877 87.7833C648.341 74.8301 648.1 61.8612 647.155 48.9341C646.711 43.9531 648.766 41.0116 653.5 39.86C658.013 38.7778 661.678 39.86 661.831 45.0908C662.317 59.8674 663.039 74.7411 661.012 89.365C660.22 95.0675 657.291 100.604 657.763 106.708C657.846 107.971 657.36 109.775 659.221 110.094C661.331 110.455 661.845 108.804 662.206 107.125C662.567 105.446 663.011 104.003 663.386 102.449C664.108 99.4519 662.067 94.9288 665.441 93.7078C669.148 92.3204 673.633 93.0696 677.77 93.0418C680.547 93.0418 680.158 95.3173 680.186 97.0655C680.256 102.837 680.186 108.609 680.186 114.381C680.186 116.49 680.186 119.099 682.491 119.57C685.171 120.125 685.726 117.447 686.031 115.408C687.309 107.194 688.642 98.9108 683.879 91.2797C681.977 88.2273 682.935 84.9945 682.866 81.8727C682.658 73.5479 681.366 65.3479 682.463 56.9814C683.171 51.5703 685.851 49.0174 690.946 49.1977C695.764 49.3781 698.68 51.168 698.333 57.2173C697.875 65.2508 698.819 73.3536 699.069 81.4287C699.249 87.0896 699.999 92.6117 696.889 98.0783C694.529 102.241 695.153 107.513 695.278 112.369C695.278 113.937 695.056 115.894 697.319 116.088C699.346 116.254 700.18 114.464 700.471 112.966C701.425 108.932 701.978 104.815 702.123 100.673C702.123 96.899 703.512 95.8584 706.899 96.122C709.204 96.3024 711.523 96.122 713.842 96.122C729.253 96.4827 729.225 96.4967 731.322 111.148C731.527 113.195 732.018 115.203 732.78 117.114C734.474 120.888 737.015 120.861 739.805 118.113C745.901 112.133 744.984 102.185 737.32 98.0645C733.571 96.0527 732.766 93.7911 732.849 90.0588C733.141 76.9055 732.627 63.6968 733.891 50.5991C734.279 46.5754 736.043 44.5913 739.597 44.2861C743.596 43.9392 743.374 47.7825 743.859 50.0441C746.525 62.0596 746.525 74.311 746.386 86.5485C746.248 99.119 747.594 100.423 760.09 102.019C767.185 102.921 774.224 104.322 780.014 109.095C786.512 114.464 786.137 119.751 778.626 123.483C768.99 128.27 758.369 129.56 747.872 130.809C706.289 135.748 665.483 132.196 625.69 118.974C623.08 118.1 620.345 117.586 617.651 117.003C615.707 116.573 612.986 117.003 612.472 114.548C611.959 112.092 613.666 110.302 615.458 108.804H615.471ZM647.739 107.236V95.012C650.835 99.9237 649.266 103.559 647.739 107.236ZM683.268 111.925V99.2716H684.004V111.925H683.268ZM733.03 100.271C741.971 102.768 743.221 108.401 736.348 117.697C733.252 111.787 733.71 106.001 733.002 100.298L733.03 100.271ZM796.786 139.786C788.164 151.787 780.403 154.049 766.56 148.111C749.274 140.646 740.833 142.672 728.517 157.212C718.507 169.034 716.396 169.616 702.137 162.957C695.873 160.05 689.794 156.76 683.935 153.105C676.632 148.541 669.731 148.666 662.65 153.327C657.263 156.852 651.904 160.473 646.281 163.623C638.075 168.243 634.632 167.105 630.286 158.863C626.773 152.301 623.566 145.669 616.624 141.922C606.627 136.511 599.963 139.272 596.728 150.122C595.339 154.868 595.339 160.057 591.535 165.995C590.743 153.203 590.785 142.172 594.062 131.405C595.2 127.632 596.436 123.705 599.977 121.568C604.35 118.932 608.307 116.92 612.903 122.72C620.664 132.363 632.591 135.568 644.031 137.718C690.141 146.376 736.126 147.736 781.486 132.682C784.54 131.669 787.651 130.837 790.775 130.06C793.163 129.463 795.481 129.588 796.731 132.155C797.981 134.721 798.855 136.872 796.759 139.786H796.786ZM574.499 221.924C572.652 228.57 570.722 235.202 566.168 240.599C564.46 242.639 562.697 245.22 559.351 243.902C556.227 242.681 556.338 239.587 555.699 237.436C555.561 227.571 563.877 217.692 571.333 218.22C573.888 218.4 575.249 219.108 574.471 221.924H574.499ZM802.021 139.744C801.942 139.045 802.12 138.34 802.52 137.761C802.921 137.182 803.518 136.768 804.201 136.595C805.589 136.192 806.283 136.983 806.478 138.357C808.866 155.423 809.032 172.336 803.257 188.791C800.174 172.447 803.576 156.033 801.993 139.744H802.021ZM825.471 200.266C816.169 200.682 811.393 207.841 806.492 213.974C797.883 224.741 788.053 231.484 773.572 228.057C756.161 225.532 744.415 232.941 736.418 248.244C731.586 257.485 726.074 259.344 715.522 256.777C706.114 254.484 697.166 250.608 689.058 245.317C677.021 237.561 665.052 236.992 652.64 244.276C648.826 246.418 644.858 248.273 640.769 249.826C626.218 255.695 616.624 253.475 605.669 242.237C598.727 235.133 593.256 226.281 584.662 221.272C577.581 217.11 578.581 212.378 579.928 206.273C581.024 201.306 583.607 200.224 587.869 201.847C595.172 204.622 602.392 207.619 609.682 210.408C638.158 221.258 667.593 225.032 697.972 223.173C723.838 221.591 749.427 218.691 774.336 211.49C783.666 208.799 792.593 205.136 800.16 198.781C801.104 197.976 801.924 196.089 803.423 196.977C809.38 200.488 814.531 196.866 819.89 195.354C821.433 194.896 823.051 194.745 824.652 194.91C826.152 195.077 826.763 196.533 827.026 197.949C827.29 199.364 827.054 200.196 825.444 200.266H825.471ZM545.508 317.119C545.145 320.994 544.037 324.763 542.246 328.218C538.552 324.708 538.233 320.851 538.219 316.897C538.219 313.719 539.969 312.415 543.009 312.36C547.202 312.262 545.647 315.107 545.508 317.119ZM830.442 206.398C834.607 220.065 831.469 231.664 830.581 243.277C826.929 231.636 829.054 219.926 830.442 206.398ZM838.62 289.993C822.986 290.937 809.796 299.081 795.898 304.95C766.449 317.438 735.543 322.585 703.97 325.332C683.689 326.913 663.333 327.33 643.004 326.581C612.458 325.735 582.691 319.449 553.325 311.319C550.229 310.459 549.452 308.891 549.743 305.866C550.312 299.886 550.743 293.892 550.771 287.898C550.798 281.905 553.339 279.671 559.337 280.434C568.417 281.841 577.282 284.396 585.717 288.037C628.384 305.145 672.786 308.988 718.187 306.38C743.79 304.909 769.337 303.383 794.093 296.098C811.754 290.909 826.027 281.71 830.845 260.551C834.524 270.111 837.662 278.172 840.702 286.275C841.549 288.134 841.549 289.813 838.62 289.993ZM850.602 350.21C849.102 331.326 848.131 312.595 845.631 293.573C848.953 294.139 852.024 295.697 854.441 298.043C856.858 300.389 858.506 303.411 859.169 306.712C863.181 322.474 859.294 336.835 850.602 350.21ZM477.781 427.353C475.091 422.52 473.582 417.119 473.379 411.591C474.054 401.853 477.546 392.521 483.432 384.73C493.623 370.855 505.397 359.02 523.599 356.703C530.111 355.871 537.9 355.801 540.76 362.433C543.995 369.898 536.595 373.866 531.527 377.501C526.182 381.108 520.617 384.38 514.866 387.297C506.105 392.042 500.162 398.688 498.038 408.775C497.268 412.99 495.577 416.983 493.086 420.47C490.595 423.957 487.365 426.852 483.626 428.949C480.738 430.669 479.266 430.156 477.781 427.353ZM917.635 425.799C917.441 429.337 918.288 434.54 914.664 435.331C911.665 435.997 910.11 430.891 908.624 427.867C907.278 425.194 906.167 422.408 905.306 419.542C902.168 408.761 895.948 401.754 883.966 401.505C883.173 401.598 882.372 401.42 881.693 400.999C881.015 400.578 880.499 399.939 880.231 399.188C877.454 392.431 874.566 385.687 871.553 379.014C869.554 374.602 871.678 374.296 875.122 375.129C876.227 375.435 877.3 375.844 878.329 376.35C894.04 383.304 906.779 395.592 914.289 411.037C916.76 415.549 917.919 420.663 917.635 425.799Z" fill="#B7B7B7" fill-opacity="0.24"/>
</svg>