<svg width="18" height="18" viewBox="0 0 18 18" fill="none" xmlns="http://www.w3.org/2000/svg">
<path d="M3.91889 7.85722C5.27889 10.53 7.47 12.7117 10.1428 14.0811L12.2206 12.0033C12.4756 11.7483 12.8533 11.6633 13.1839 11.7767C14.2417 12.1261 15.3844 12.315 16.5556 12.315C17.075 12.315 17.5 12.74 17.5 13.2594V16.5556C17.5 17.075 17.075 17.5 16.5556 17.5C7.68722 17.5 0.5 10.3128 0.5 1.44444C0.5 0.925 0.925 0.5 1.44444 0.5H4.75C5.26944 0.5 5.69444 0.925 5.69444 1.44444C5.69444 2.625 5.88333 3.75833 6.23278 4.81611C6.33667 5.14667 6.26111 5.515 5.99667 5.77944L3.91889 7.85722Z" fill="white"/>
</svg>
