<svg width="24" height="24" viewBox="0 0 24 24" fill="none" xmlns="http://www.w3.org/2000/svg">
<path d="M12 8.75C11.138 8.75 10.3114 9.09241 9.7019 9.7019C9.09241 10.3114 8.75 11.138 8.75 12C8.75 12.862 9.09241 13.6886 9.7019 14.2981C10.3114 14.9076 11.138 15.25 12 15.25C12.862 15.25 13.6886 14.9076 14.2981 14.2981C14.9076 13.6886 15.25 12.862 15.25 12C15.25 11.138 14.9076 10.3114 14.2981 9.7019C13.6886 9.09241 12.862 8.75 12 8.75Z" fill="white"/>
<path fill-rule="evenodd" clip-rule="evenodd" d="M6.76982 3.08194C10.2458 2.69664 13.7538 2.69664 17.2298 3.08194C19.1288 3.29394 20.6598 4.78894 20.8828 6.69494C21.295 10.2196 21.295 13.7803 20.8828 17.3049C20.6598 19.2109 19.1288 20.7059 17.2308 20.9189C13.7545 21.3043 10.2462 21.3043 6.76982 20.9189C4.87082 20.7059 3.33982 19.2109 3.11682 17.3059C2.70455 13.781 2.70455 10.2199 3.11682 6.69494C3.33982 4.78894 4.87082 3.29394 6.76982 3.08194ZM16.9998 5.99994C16.7346 5.99994 16.4802 6.1053 16.2927 6.29284C16.1052 6.48037 15.9998 6.73473 15.9998 6.99994C15.9998 7.26516 16.1052 7.51951 16.2927 7.70705C16.4802 7.89459 16.7346 7.99994 16.9998 7.99994C17.265 7.99994 17.5194 7.89459 17.7069 7.70705C17.8945 7.51951 17.9998 7.26516 17.9998 6.99994C17.9998 6.73473 17.8945 6.48037 17.7069 6.29284C17.5194 6.1053 17.265 5.99994 16.9998 5.99994ZM7.24982 11.9999C7.24982 10.7402 7.75027 9.53198 8.64106 8.64119C9.53186 7.75039 10.74 7.24994 11.9998 7.24994C13.2596 7.24994 14.4678 7.75039 15.3586 8.64119C16.2494 9.53198 16.7498 10.7402 16.7498 11.9999C16.7498 13.2597 16.2494 14.4679 15.3586 15.3587C14.4678 16.2495 13.2596 16.7499 11.9998 16.7499C10.74 16.7499 9.53186 16.2495 8.64106 15.3587C7.75027 14.4679 7.24982 13.2597 7.24982 11.9999Z" fill="white"/>
</svg>
