<svg width="203" height="166" viewBox="0 0 203 166" fill="none" xmlns="http://www.w3.org/2000/svg">
<circle cx="105.5" cy="86.5" r="62.5" fill="#BC6081"/>
<path d="M82.0062 36C81.3918 36.0853 81.337 36.5389 81.3213 37.0178C81.1902 40.8271 81.0806 44.6384 80.93 48.4458C80.7499 52.9045 80.6032 57.3633 80.5386 61.8221C80.4877 65.1797 80.3429 68.5374 80.2568 71.9028C80.1492 76.0998 80.0611 80.2969 79.9594 84.5036C79.8713 88.0222 79.7637 91.5407 79.6678 95.0612C79.57 98.6437 79.5152 102.234 79.3606 105.811C79.2549 108.236 79.0867 110.644 79.3606 113.077C79.7031 116.198 81.4544 117.818 84.3759 118.476C85.9667 118.834 87.6202 118.863 89.2678 118.888C92.6257 118.945 95.9835 119.113 99.3394 119.051C102.437 118.993 105.537 119.09 108.628 118.962C111.01 118.863 113.389 118.962 115.769 118.881C119.647 118.751 123.525 118.702 127.406 118.687C130.145 118.673 132.885 118.646 135.624 118.481C138.688 118.287 140.571 119.78 141.784 122.378C142.236 123.347 141.98 123.64 141.001 123.718C139.411 123.84 137.81 123.911 136.211 123.911C124.999 123.958 113.784 124.03 102.572 123.987C99.4412 123.975 96.3103 123.987 93.1794 123.915C89.5613 123.836 85.9393 123.772 82.3252 123.601C81.1883 123.547 80.0416 123.578 78.8929 123.386C78.2159 123.274 78.0104 123.01 77.8167 122.469C77.1455 120.585 76.9812 118.602 76.672 116.653C76.3863 114.86 76.3021 113.036 76.0419 111.237C75.9577 110.655 75.946 110.33 76.5428 110.047C76.9342 109.853 77.0223 109.389 77.0614 108.911C77.4195 104.558 77.5115 100.187 77.6484 95.8328C77.7658 92.1203 77.8676 88.4079 77.9263 84.6955C77.9811 81.1751 78.0006 77.6546 78.1337 74.138C78.2883 70.0669 78.1004 65.9959 78.2374 61.9345C78.3353 59.0266 78.3137 56.1187 78.302 53.2108C78.2883 49.7214 78.1748 46.2319 78.1317 42.7424C78.13 42.5396 78.0844 42.3394 77.998 42.1555C77.9116 41.9716 77.7864 41.8081 77.6308 41.6762" stroke="white" stroke-width="1.5" stroke-linecap="round" stroke-linejoin="round"/>
<path d="M76.5291 68.2299C75.9269 67.6481 76.009 66.8083 75.7471 66.0966C74.7832 63.4823 73.7119 60.9127 72.228 58.5447C71.3521 57.1561 71.313 55.7074 71.6415 54.1792C72.2124 51.5727 72.6738 48.9429 73.1625 46.3228C73.7725 43.0608 75.1175 40.2429 77.0726 37.586C79.2994 34.5936 81.1566 31.38 82.2045 27.7321C83.1195 24.5612 83.3385 21.4059 82.3649 18.2292C81.9152 16.7689 81.0218 15.5859 79.448 15.1262C78.3394 14.8062 77.2974 15.0933 76.6366 16.0028C74.0951 19.5208 71.2681 22.8061 68.4098 26.0662C64.012 31.0842 60.0604 36.4705 56.5995 42.1648C53.9758 46.476 51.5027 50.8648 49.3659 55.4398C48.147 57.9828 47.102 60.6043 46.2378 63.2865C45.4671 65.8587 44.8791 68.4813 44.4783 71.1351C43.8292 75.1205 43.534 79.1408 43.1098 83.1591C42.6112 87.7709 41.8351 92.344 40.2026 96.7347C40.1322 96.9286 40.1283 97.1788 39.9954 97.3048C39.6748 97.6074 39.8468 98.1504 39.4793 98.3463C38.4216 98.1756 37.448 97.8944 36.3883 98.0631C35.8175 98.1543 35.5692 98.3831 35.3014 98.8563C33.9094 101.314 32.9436 103.957 31.8155 106.527C30.6699 109.145 29.6376 111.811 28.58 114.466C27.1665 118.015 25.7471 121.56 24.3844 125.133C23.3287 127.892 22.3473 130.681 21.3502 133.472C20.9025 134.723 20.4724 135.982 20.0873 137.252C19.8918 137.882 19.9895 138.348 20.7442 138.734C22.619 139.703 24.5839 140.436 26.533 141.198C30.9338 142.919 35.3737 144.542 39.8155 146.155C43.2192 147.391 46.619 148.659 50.0912 149.675C50.9885 149.939 52.099 149.823 52.9846 150.257C53.613 150.574 54.2737 150.823 54.9553 151" stroke="white" stroke-width="1.5" stroke-linecap="round" stroke-linejoin="round"/>
<path d="M165.387 99.7763C165.354 100.602 166.095 100.904 166.579 101.295C169.061 103.292 171.573 105.25 174.114 107.167C175.079 107.892 174.949 108.851 174.869 109.774C174.702 111.699 174.402 113.624 174.212 115.548C174.091 116.784 174.551 117.948 174.924 119.093C175.064 119.507 175.177 119.93 175.263 120.358C175.459 121.416 175.228 121.747 174.203 122.282C170.72 124.091 166.998 125.329 163.337 126.718C159.183 128.295 154.971 129.707 150.795 131.22C148.547 132.034 146.287 132.813 144.039 133.629C142.703 134.116 142.72 134.134 143.154 135.454C144.216 138.699 145.823 141.691 147.428 144.692C148.715 147.107 150.029 149.503 151.389 151.882C153.717 155.956 156.259 159.909 159.004 163.724C160.167 165.333 161.697 165.09 163.23 164.752C166.821 163.958 170.382 163.038 173.912 161.994C178.449 160.647 182.98 159.282 187.435 157.662C189.426 156.934 191.41 156.203 193.314 155.271C194.016 154.931 194.126 154.488 193.883 153.909C193.027 151.878 192.148 149.857 191.245 147.848C188.927 142.693 186.475 137.599 183.888 132.565C181.928 128.737 180.002 124.878 177.571 121.285C176.758 120.082 175.823 119.905 174.598 120.159C171.839 120.737 169.184 121.628 166.563 122.648C163.537 123.828 160.488 124.927 157.462 126.127C154.859 127.163 152.304 128.306 149.717 129.38C148.69 129.805 147.636 130.171 146.564 130.575C145.584 130.133 145.423 129.159 145.133 128.322C144.598 126.782 144.327 125.156 143.773 123.606C143.605 123.136 143.327 122.712 142.961 122.367C141.068 120.506 139.183 118.639 137.278 116.786C133.26 112.883 129.782 108.479 126.932 103.687C125.682 101.593 124.731 99.3221 123.73 97.0857C122.142 93.548 120.116 90.2158 117.698 87.1646C116.166 85.2231 114.524 83.3675 112.781 81.6064C111.158 79.9725 110.447 77.9786 110.057 75.8211C109.506 72.7919 108.51 69.8704 107.801 66.8796C107.528 65.7249 107.183 64.5836 107.036 63.4154C106.752 61.1482 108.144 59.7106 110.641 60.0493C111.626 60.196 112.581 60.4955 113.471 60.9365C113.91 61.1463 114.288 61.3214 114.754 61.1097" stroke="white" stroke-width="1.5" stroke-linecap="round" stroke-linejoin="round"/>
<path d="M39.891 98C41.9302 98.5159 44.0136 98.8124 46.0471 99.3659C49.3609 100.234 52.6035 101.367 55.7449 102.756C60.033 104.701 64.1325 107.004 67.8647 109.945C68.8299 110.69 69.731 111.518 70.558 112.422C71.0216 112.938 71.1082 113.464 70.8754 114.201C69.0632 119.963 66.947 125.608 64.9271 131.291C62.7647 137.383 60.3985 143.391 58.1188 149.433C57.2883 151.711 56.3068 153.927 55.1812 156.067C54.6925 156.966 54.3116 157.182 53.4498 156.858C51.1412 155.958 48.8115 155.079 46.5242 154.09C43.1095 152.622 39.6967 151.137 36.3281 149.544C34.0908 148.477 31.8342 147.453 29.5949 146.403C25.7589 144.604 21.9652 142.707 18.0522 141.066C17.8425 140.979 17.6675 140.787 17.4751 140.671C15.9053 139.842 15.0838 140.062 14.0123 141.554C13.1293 142.784 12.3655 144.096 11.3363 145.223C10.0031 146.682 8.27365 146.927 6.4172 145.707C4.16637 144.227 2.66006 142.048 1.10757 139.896C0.844009 139.532 1.14989 139.415 1.13258 139.186" stroke="white" stroke-width="1.5" stroke-linecap="round" stroke-linejoin="round"/>
<path d="M150 47.3614C149.096 47.3614 148.527 46.6546 147.899 46.2098C145.303 44.3611 142.244 43.277 139.066 43.0801C133.925 42.7104 129.016 43.6345 124.288 45.5579C121.741 46.5937 119.184 47.5889 116.589 48.4744C115.845 48.7282 115.051 49.0309 115.004 49.8961C114.979 50.3404 115.075 50.7831 115.282 51.1768C115.489 51.5704 115.799 51.9 116.179 52.1301C116.986 52.6514 117.877 53.0261 118.813 53.237C121.042 53.7752 123.283 54.155 125.599 53.9601C127.78 53.7773 129.579 52.8166 131.273 51.5229C132.811 50.3469 133.95 48.7892 135.326 47.4609C137.437 45.4177 137.96 45.5843 139.554 47.8671C140.829 49.695 141.721 51.7483 142.705 53.7427C143.019 54.4365 143.428 55.0825 143.921 55.662C144.395 56.1819 144.732 56.0926 145.137 55.4589C145.917 54.2403 146.033 52.8389 146.324 51.4924C146.598 50.2312 146.527 48.8928 147.25 47.7392C147.311 47.6417 147.25 47.4731 147.25 47.333" stroke="white" stroke-width="1.5" stroke-linecap="round" stroke-linejoin="round"/>
<path d="M202 33.8522C201.331 33.1829 200.705 33.7737 200.095 33.965C198.899 34.3474 198.011 35.1735 197.238 36.1429C195.662 38.0952 194.106 40.0648 192.476 41.9616C191.19 43.4424 189.644 44.6738 187.915 45.5948C186.622 46.2908 185.574 46.0843 184.486 45.0211C182.928 43.5028 182.157 41.5161 181.359 39.5695C179.979 36.2137 178.715 32.81 177.335 29.4542C176.409 27.1234 175.16 24.9349 173.627 22.9528C172.067 20.9795 170.223 19.3713 167.636 18.9373C165.471 18.5389 163.236 18.9469 161.35 20.0846C158.142 22.0082 155.94 24.9204 153.827 27.913C152.997 29.087 152.199 30.286 151.338 31.4371C151.075 31.7889 150.657 32.026 150.303 32.3052C149.459 32.9668 148.945 32.8311 148.589 31.8272C148.158 30.5938 148.088 29.2859 148.038 28.0028C147.92 24.9759 148.095 21.9508 148.292 18.9277C148.396 17.7196 148.42 16.5059 148.364 15.2946C148.313 14.5297 147.907 13.7821 148.299 13" stroke="white" stroke-width="1.5" stroke-linecap="round" stroke-linejoin="round"/>
<path d="M63.8103 113C64.2653 114.334 63.7984 115.619 63.4878 116.877C62.4986 120.889 61.3491 124.859 60.0908 128.806C58.8483 132.708 57.6414 136.615 56.0923 140.413C55.8509 140.994 55.7223 141.644 55.3009 142.157C54.8795 142.671 54.375 142.867 53.6153 142.764C50.1985 142.303 46.9815 141.134 43.7428 140.091C39.2893 138.657 34.8674 137.117 30.3803 135.782C29.2577 135.425 28.102 135.177 26.9299 135.041C26.5124 134.999 26.3363 135.2 26 135.303C26.4709 136.371 27.5155 136.854 28.4196 137.393C33.069 140.198 37.8767 142.729 42.7278 145.187C45.1495 146.414 47.5513 147.686 49.965 148.932C50.4542 149.173 50.8652 149.543 51.1521 150" stroke="white" stroke-width="1.5" stroke-linecap="round" stroke-linejoin="round"/>
<path d="M173.163 99C173.716 98.5435 174.445 98.3687 175.081 98.0618C176.598 97.3314 177.116 96.2223 177.194 94.7305C177.469 89.2644 177.807 83.8022 177.942 78.3303C178.031 74.7601 178.077 71.2054 177.623 67.6468C177.511 66.765 177.179 66.1822 176.355 65.685C174.914 64.8206 173.311 64.4379 171.69 64.0669C171.088 63.929 170.475 63.9795 170 64.4554" stroke="white" stroke-width="1.5" stroke-linecap="round" stroke-linejoin="round"/>
<path d="M39.2302 99C39.0758 99.0946 39.1605 99.2497 39.1361 99.3783C38.8592 100.774 38.9139 100.916 40.1736 101.359C42.8965 102.318 45.6344 103.228 48.3535 104.21C49.5699 104.649 50.7412 105.209 51.9313 105.71C53.626 106.419 54.0704 107.833 53.9913 109.494C53.9104 111.183 53.803 112.872 53.6147 114.55C53.3229 117.028 52.9594 119.501 52.5866 121.97C52.2872 123.952 52.001 125.942 51.7072 127.919C51.5923 128.676 51.9068 129.308 51.935 130" stroke="white" stroke-width="1.5" stroke-linecap="round" stroke-linejoin="round"/>
<path d="M150 32C149.72 31.3885 149.736 30.7253 149.714 30.089C149.613 27.1001 149.588 24.1055 149.492 21.107C149.346 16.6829 149.145 12.2608 149.011 7.83479C148.993 7.22899 148.545 7.00349 148.186 7.01304C147.315 7.03407 146.419 6.42253 145.564 7.06846C145.362 7.21943 145.16 7.06846 144.958 6.97673C143.529 6.37043 141.987 6.04038 140.421 6.00592C138.787 5.93903 138.095 6.43017 138 7.93226" stroke="white" stroke-width="1.5" stroke-linecap="round" stroke-linejoin="round"/>
<path d="M78 42C77.5801 42.3494 77.6317 42.8333 77.6317 43.3079C77.6114 49.8476 77.9337 56.3761 77.8158 62.9121C77.7901 64.3135 77.7164 65.7148 77.6317 67.1124C77.6077 67.4955 77.617 68.0037 77 68" stroke="white" stroke-width="1.5" stroke-linecap="round" stroke-linejoin="round"/>
<path d="M141 79C144.859 82.1484 148.716 85.2981 152.574 88.4491C156.674 91.8152 160.786 95.1814 164.957 98.4526C165.326 98.7417 165.631 98.9674 166.11 98.9476C166.706 98.9238 167.092 99.4367 167.542 99.7396C168.849 100.623 170.108 101.579 171.387 102.492C172.594 103.349 173.932 103.102 174.847 101.898C175.197 101.443 175.616 101.037 176 100.607" stroke="white" stroke-width="1.5" stroke-linecap="round" stroke-linejoin="round"/>
<path d="M76.5762 69C76.5641 70.637 76.639 72.2701 76.5378 73.9129C76.5013 74.5025 77.0197 75.1392 76.9994 75.8781C76.9032 79.523 76.1053 83.1183 74.6467 86.4783C73.7594 88.5928 72.573 90.577 71.1217 92.3738C70.816 92.7433 70.573 93.1206 70 92.9634" stroke="white" stroke-width="1.5" stroke-linecap="round" stroke-linejoin="round"/>
<path d="M119.004 63C118.978 63.3436 119.079 63.6845 119.286 63.9526C121.234 66.2217 122.494 68.9899 124.259 71.398C126.958 75.075 130.479 77.3193 134.726 78.4472C135.421 78.6377 136.121 78.7596 136.814 78.9311C137.209 79.0526 137.633 79.0124 138 78.8187" stroke="white" stroke-width="1.5" stroke-linecap="round" stroke-linejoin="round"/>
<path d="M139.343 78C138.723 77.9545 138.685 77.3044 138.306 76.9993C135.678 74.8956 133.067 72.7692 130.441 70.6636C127.815 68.558 125.136 66.4315 122.484 64.3183C121.568 63.5887 120.754 62.5747 119.712 62.2108C118.351 61.737 117.578 60.5999 116.411 59.9839C115.888 59.7072 115.827 59.1709 115.464 58.8297C114.914 58.3067 114.351 57.7912 113.758 57.3136C113.165 56.836 112.735 56.4001 113.19 55.5946C113.262 55.4657 113.001 55.2478 113.145 55.026C113.258 54.8365 113.523 54.9218 113.667 54.8251C114.575 54.1807 115.447 53.705 116.638 54.2149C116.881 54.3191 117.332 54.3077 117.654 54.4688C117.979 54.6418 118.296 54.8316 118.601 55.0374C119.484 55.5946 120.496 55.3937 121.443 55.5302C124.016 55.9092 126.559 55.6022 129.115 55.3918C131.472 55.1915 133.843 55.5513 136.035 56.4418C139.538 57.8366 142.236 60.2815 144.845 62.8855C146.143 64.1819 147.475 65.4536 149 66.4865" stroke="white" stroke-width="1.5" stroke-linecap="round" stroke-linejoin="round"/>
<path d="M150 49C151.394 49.472 152.355 50.5702 153.475 51.4236C156.727 53.9031 159.886 56.5079 163.274 58.8101C164.796 59.8466 166.449 60.7039 167.899 61.8291C169.594 63.1449 170.833 64.9116 171.98 66.7149C172.025 66.7823 171.98 66.9075 171.98 67" stroke="white" stroke-width="1.5" stroke-linecap="round" stroke-linejoin="round"/>
<path d="M144.001 76C143.974 76.5896 144.396 76.9189 144.791 77.2386C146.983 79.0343 149.151 80.8645 151.416 82.5702C152.107 83.0928 152.056 83.9103 152.738 84.4559C155.075 86.3262 157.344 88.2846 159.656 90.178C161.722 91.8741 163.78 93.5779 165.891 95.2205C167.43 96.417 168.946 97.6403 170.603 98.6932C171.108 99.0129 171.495 99.1067 172 98.8597" stroke="white" stroke-width="1.5" stroke-linecap="round" stroke-linejoin="round"/>
<path d="M97 49.2384C96.0093 48.5432 95.9039 47.3808 95.467 46.3894C94.599 44.4179 93.934 42.3514 92.7843 40.5014C92.6698 40.2781 92.4809 40.1009 92.2497 40C92.0319 40.1421 91.8467 40.328 91.7061 40.5455C91.5655 40.7631 91.4725 41.0076 91.4333 41.2631C90.916 43.7702 90.7588 46.321 90.4982 48.8604C90.4852 49.2894 90.3069 49.6972 90 50" stroke="white" stroke-width="1.5" stroke-linecap="round" stroke-linejoin="round"/>
<path d="M153 82.0308C153.862 81.85 154.398 82.5049 154.941 82.953C157.65 85.185 160.302 87.4913 162.985 89.7575C165.849 92.1683 168.806 94.4827 171.564 97.0241C173.025 98.3702 174.733 99.435 176 101" stroke="white" stroke-width="1.5" stroke-linecap="round" stroke-linejoin="round"/>
<path d="M114.497 52C114.632 51.7001 114.996 51.519 115 51.0569C114.025 50.0062 112.669 49.2914 111.36 48.6349C108.313 47.1033 105.26 45.5641 102.042 44.3381C99.9679 43.5478 99.5033 44.2419 98.6224 45.4C97.8682 46.3941 97.7334 47.6635 97.0274 48.7066C96.9249 48.8556 97.1381 49.1952 97.2044 49.446" stroke="white" stroke-width="1.5" stroke-linecap="round" stroke-linejoin="round"/>
<path d="M77 75C76.1836 75.8091 76.2164 76.8773 75.9494 77.816C75.0519 80.9925 73.6948 84.0319 72.3903 87.0864C71.773 88.5357 71.0463 89.9531 70.3896 91.3911C70.1401 91.9393 70.2802 92.4969 70 93" stroke="white" stroke-width="1.5" stroke-linecap="round" stroke-linejoin="round"/>
<path d="M64 113C62.7333 113.824 62.1716 115.167 61.4469 116.385C59.1039 120.366 56.7982 124.37 54.4671 128.357C54.0919 128.995 53.7561 129.685 53 130" stroke="white" stroke-width="1.5" stroke-linecap="round" stroke-linejoin="round"/>
<path d="M173.67 100C173.033 100.578 172.855 101.418 172.397 102.096C171.938 102.775 172.73 103.571 172 104.221C173.585 105.691 175.026 107.253 177.021 108.282C176.596 109.062 176.747 109.682 177.483 110.2C178.3 110.78 179.098 111.384 180.03 111.8C180.838 112.15 181.545 112.054 182.152 111.4C182.901 110.6 183.378 109.65 183.824 108.692C183.968 108.382 184.128 107.936 183.839 107.605C182.971 106.621 182.192 105.537 180.836 104.937C180.234 105.505 179.987 106.243 179.603 106.901C179.391 107.267 179.206 107.649 178.967 107.998C178.275 108.982 178.266 108.976 177.057 108.5" stroke="white" stroke-width="1.5" stroke-linecap="round" stroke-linejoin="round"/>
<path d="M134 7.11511C135.032 6.91846 136.076 7.03645 137.118 7.02269C138.616 7.00303 140.118 6.99123 141.607 7.21933C141.749 7.24835 141.89 7.28511 142.029 7.32946C142.284 9.83275 142.542 12.3557 142.799 14.8806C143.015 17.0083 143.002 19.2068 143.532 21.2421C143.857 22.5164 143.734 23.769 144 25" stroke="white" stroke-width="1.5" stroke-linecap="round" stroke-linejoin="round"/>
<path d="M120 56C120.547 57.0587 121.632 57.2849 122.483 57.8413C124.209 58.9664 126.012 59.9482 127.788 60.9737C128.358 61.3058 128.856 61.6919 129.023 62.4268C129.154 63.0039 129.611 63.3194 129.973 63.6619C134.374 67.7388 138.689 71.9382 143.542 75.3966C144.788 76.285 144.849 76.256 145.736 74.8818C146.721 73.3602 147.367 71.6559 148.102 69.9994C148.381 69.3766 148.655 68.7539 148.961 68.1312C149.196 67.6641 149.531 67.4648 150 67.8177" stroke="white" stroke-width="1.5" stroke-linecap="round" stroke-linejoin="round"/>
<path d="M150 33C150 34.1322 150 35.2644 150 36.3966C150 39.6648 150 42.9368 150 46.1994C150 47.1014 150 48.0675 150 48.9355C150 49.9036 150 51.0829 150 52" stroke="white" stroke-width="1.5" stroke-linecap="round" stroke-linejoin="round"/>
<path d="M113.349 55C113.177 53.935 114.292 53.3599 114.715 52.515C114.796 52.4077 114.892 52.3089 115 52.2203C112.762 50.9636 110.534 49.769 108.215 48.704C106.266 47.8165 104.351 46.858 102.257 46.1976C101.803 46.0539 101.44 45.8728 101 46.1284" stroke="white" stroke-width="1.5" stroke-linecap="round" stroke-linejoin="round"/>
<path d="M88.0202 38C87.8888 38.658 88.4374 39.1524 88.5542 39.7621C88.9193 41.6394 88.9715 43.539 89.1655 45.4275C89.274 46.4331 89.128 47.5335 89.5494 48.4201C89.9708 49.3067 89.9666 50.1264 90 51" stroke="white" stroke-width="1.5" stroke-linecap="round" stroke-linejoin="round"/>
<path d="M82 36C82.6693 37.0126 82.7001 38.2774 83.0031 39.4269C83.5355 41.4384 83.919 43.4969 84.5438 45.4869C84.7164 46.0331 84.965 46.5441 85.2799 47C86.0468 46.2865 86.0057 45.2035 86.2676 44.2964C86.6767 42.8889 86.9643 41.4345 87.3153 39.9957C87.43 39.5285 87.5464 39.0437 88 38.8228" stroke="white" stroke-width="1.5" stroke-linecap="round" stroke-linejoin="round"/>
<path d="M101 46C101.468 47.1115 102.406 47.9347 103.274 48.7688C105.64 51.0374 108.085 53.244 110.646 55.3393C110.959 55.574 111.285 55.7945 111.623 56C112.124 55.8175 112.444 55.4032 113 55.4342" stroke="white" stroke-width="1.5" stroke-linecap="round" stroke-linejoin="round"/>
<path d="M89 7.36484C88.3145 7.16068 87.6164 7.27501 86.9255 7.27092C85.7855 7.27092 85.2281 6.91773 85.0567 5.62745C84.7645 3.40008 83.4333 2.22412 81.8711 1.26049C80.9529 0.690889 80.2368 1.08492 79.6145 2.15471C78.8298 3.50216 78.7125 5.04152 78.5628 6.55025C78.3806 8.44831 78.3131 10.3582 78.3608 12.2667C78.3734 12.8792 78.3608 13.4916 78 14" stroke="white" stroke-width="1.5" stroke-linecap="round" stroke-linejoin="round"/>
<path d="M144.85 6C144.807 5.04535 145.823 4.20984 145.88 3.25989C145.88 3.14859 145.962 2.99968 145.982 2.868C146.033 2.51216 146.022 2.1281 145.268 2.01837C144.514 1.90864 144.377 2.31621 144.152 2.55918C143.41 3.36491 143.208 4.24589 143.139 5.13784C143.139 5.246 143.233 5.37297 143 5.45135" stroke="white" stroke-width="1.5" stroke-linecap="round" stroke-linejoin="round"/>
<path d="M97 3.72056C96.4841 3.41931 96.1339 2.96444 95.7465 2.52354C95.2988 1.98221 94.7384 1.53709 94.1014 1.21678C93.7183 1.0331 93.2871 0.963818 92.8629 1.01785C92.4387 1.07189 92.0409 1.24676 91.7207 1.52002C90.6557 2.48363 90.1895 3.80036 89.568 5.01734C89.4374 5.27271 89.5679 5.68568 89.6591 6.0009C89.8083 6.4837 89.9181 6.91263 89.34 7.19792C89.251 7.24193 89.1786 7.31171 89.1329 7.39743C88.7185 8.19545 89.34 11.2638 90.0797 12C90.9313 11.8284 91.1799 11.2698 91.211 10.4858C91.2524 9.48823 90.7759 8.5765 90.7842 7.59494" stroke="white" stroke-width="1.5" stroke-linecap="round" stroke-linejoin="round"/>
<path d="M148 14C146.71 15.094 146.622 16.512 146.095 17.8C145.544 19.176 145.108 20.586 144.717 22C144.633 22.3808 144.382 22.7317 144 23" stroke="white" stroke-width="1.5" stroke-linecap="round" stroke-linejoin="round"/>
<path d="M85 6C84.9036 6.18231 84.766 6.3302 84.6023 6.42751C84.4387 6.52483 84.2553 6.56782 84.0721 6.5518C81.9081 6.52799 79.7442 6.55179 77.5766 6.53665C76.2255 6.53665 75.9267 6.80281 76.0139 8.37814C76.1059 10.0001 76.4684 11.5856 77.0811 13.0457C77.2778 13.5218 77.6267 13.6559 77.855 14" stroke="white" stroke-width="1.5" stroke-linecap="round" stroke-linejoin="round"/>
<path d="M132.318 7.90428C132.274 8.83377 132.488 9.75742 132.937 10.5736C133.069 10.8261 133.218 11.0643 133.556 10.9842C133.894 10.9041 133.946 10.6742 133.969 10.3682C134.057 9.48737 133.985 8.5367 133.403 7.9474C132.821 7.35811 132.442 6.85094 132.415 6.05837C132.374 4.90853 131.685 4.08515 130.971 3.29464C130.387 2.64466 129.767 2.02771 129.114 1.44667C128.272 0.70954 127.356 0.914878 126.638 1.84091C126.083 2.55751 125.869 3.41373 125.543 4.21862C125.413 4.52265 125.229 4.80088 125 5.03993" stroke="white" stroke-width="1.5" stroke-linecap="round" stroke-linejoin="round"/>
<path d="M76 110.066C75.9062 109.873 75.8324 109.669 75.7799 109.458C75.5599 107.746 75.4146 107.721 73.8939 108.465C72.8882 108.951 72.1334 109.735 71.3719 110.549C71.11 110.826 71.1012 111.176 71 111.521C72.1818 112.427 73.3306 111.832 74.4485 111.489C74.8887 111.353 75.3068 111.096 75.7689 111.025" stroke="white" stroke-width="1.5" stroke-linecap="round" stroke-linejoin="round"/>
<path d="M115 4.59335C114.337 3.96342 113.645 3.35742 113.022 2.6956C112.035 1.64905 110.448 1.7846 109.34 3.09428C108.826 3.69231 108.669 4.50962 108 5" stroke="white" stroke-width="1.5" stroke-linecap="round" stroke-linejoin="round"/>
<path d="M108.007 7.54297C107.471 7.6162 107.362 8.00673 107.373 8.56C107.387 9.46312 107.403 10.35 107.73 11.2043C107.909 11.6558 108.102 12.0647 108.543 11.9915C109.079 11.8999 108.997 11.3487 108.993 10.8951C108.983 9.62584 109.086 8.33218 108.025 7.41686C107.859 7.27244 107.827 6.82495 107.846 6.52594C107.941 4.58341 106.715 3.51757 105.675 2.38053C105.092 1.74183 104.115 1.92693 103.57 2.78734C102.794 4.00777 101.799 5.1977 102.467 6.94292C102.485 7.02782 102.487 7.11605 102.472 7.20167C102.457 7.28729 102.426 7.36829 102.382 7.43923C101.719 8.52745 101.953 10.4557 102.827 11.3202C102.907 11.4124 103.008 11.4773 103.119 11.5075C103.23 11.5377 103.346 11.532 103.454 11.4911C103.745 11.367 104.04 11.1473 103.99 10.6978C103.859 9.39193 103.863 8.00674 102.56 7.34364" stroke="white" stroke-width="1.5" stroke-linecap="round" stroke-linejoin="round"/>
<path d="M125.815 6.38322C126.83 6.72983 126.916 7.53206 126.995 8.34857C127.022 8.62551 126.944 8.88458 126.686 8.95248C126.553 9.00088 126.408 9.01263 126.268 8.98625C126.128 8.95987 126 8.89653 125.9 8.80418C125.457 8.38609 125.076 7.19616 125.437 6.75306C126.043 5.99729 125.742 5.14505 125.359 4.63584C124.745 3.80145 124.036 2.95099 123.062 2.36674C121.941 1.69495 121.194 1.93615 120.703 3.17254C120.25 4.32495 119.779 5.47916 120.113 6.74592" stroke="white" stroke-width="1.5" stroke-linecap="round" stroke-linejoin="round"/>
<path d="M120 5.78097C119.079 4.86754 118.643 3.57561 117.677 2.6815C116.557 1.6522 115.9 1.79511 115.028 3.06773C114.314 4.10282 114.256 5.14369 114.51 6.26954C114.576 6.47309 114.585 6.69155 114.536 6.90012C114.488 7.10869 114.384 7.29902 114.236 7.44947C113.692 8.10027 114.275 8.91134 114.154 9.65483C114.167 9.8533 114.226 10.0455 114.327 10.2149C114.536 10.5277 114.585 11.0916 115.147 10.9873C115.661 10.8985 115.802 10.3211 115.763 10.0333C115.619 8.96735 115.95 7.67155 114.682 7.03621" stroke="white" stroke-width="1.5" stroke-linecap="round" stroke-linejoin="round"/>
<path d="M140.967 6C141.073 4.71198 140.922 3.41442 140.524 2.19419C140.095 0.80774 138.934 0.595151 138.074 1.73204C137.67 2.26813 137.35 2.88742 137 3.45586" stroke="white" stroke-width="1.5" stroke-linecap="round" stroke-linejoin="round"/>
<path d="M89 5C88.3065 4.65174 88.1809 3.74539 87.7586 3.13107C87.3544 2.53279 86.9146 1.96966 86.4427 1.44601C85.822 0.766797 85.5981 0.890094 84.9865 1.6342C84.466 2.26583 84.6316 3.28465 84 3.81029" stroke="white" stroke-width="1.5" stroke-linecap="round" stroke-linejoin="round"/>
<path d="M176.477 107C177.248 105.701 177.983 104.376 178.807 103.113C179.115 102.641 179.035 102.368 178.703 102.037C177.565 100.899 176.239 100.021 174.934 99.1237C174.558 98.8647 174.2 99.0279 174 99.4679" stroke="white" stroke-width="1.5" stroke-linecap="round" stroke-linejoin="round"/>
<path d="M102 4.97888C101.405 4.2705 100.792 3.58235 100.221 2.84967C99.7497 2.24248 99.0762 1.78305 98.5421 2.10688C98.1802 2.31003 97.8736 2.63003 97.657 3.03045C97.4405 3.43086 97.3229 3.8956 97.3175 4.37169C97.3175 5.16913 97.673 5.89573 97.5794 6.69722C97.5318 7.10201 97.8686 7.00284 98.0132 7.14047C98.7649 7.861 99.1493 10.5367 98.5982 11.4495C98.4166 11.71 98.1747 11.9014 97.9026 12C97.5624 11.7005 97.4451 11.3038 97.3056 10.8524C97.047 10.0206 97.0828 9.15835 97.0079 8.31234C96.9688 7.87516 97.0658 7.35096 97.4961 7.09796" stroke="white" stroke-width="1.5" stroke-linecap="round" stroke-linejoin="round"/>
<path d="M137 6C136.944 5.41123 136.812 4.81501 136.851 4.23369C136.949 2.77108 136.041 2.01089 135.271 1.17432C134.872 0.738327 134.083 1.15941 133.654 2.00158C133.399 2.50464 133.211 3.05242 133 3.57971" stroke="white" stroke-width="1.5" stroke-linecap="round" stroke-linejoin="round"/>
<path d="M96 6.83512C94.3636 6.93745 92.7273 6.64037 91.0909 6.99027C90.6273 7.0893 90.3455 6.40931 90 6" stroke="white" stroke-width="1.5" stroke-linecap="round" stroke-linejoin="round"/>
<path d="M144.893 7C144.064 7.93121 143.937 9.0197 144.023 10.1182C144.094 10.977 145.047 11.2566 145.927 10.7423C147.407 9.87102 147.354 8.46547 145.779 7.12483" stroke="white" stroke-width="1.5" stroke-linecap="round" stroke-linejoin="round"/>
<path d="M84 7C84.0654 7.45174 84.0455 7.92903 84.2297 8.34725C84.3485 8.61861 84.4872 9.0496 85.0892 8.99533C85.6913 8.94105 85.8814 8.5803 85.9645 8.1972C86.0057 7.82563 86.0111 7.45204 85.9804 7.07981" stroke="white" stroke-width="1.5" stroke-linecap="round" stroke-linejoin="round"/>
<path d="M133 7C132.646 7 132.145 7 131.655 7C130.345 7 129.032 7 127.722 7C127.497 7 127.242 7 127 7" stroke="white" stroke-width="1.5" stroke-linecap="round" stroke-linejoin="round"/>
<path d="M114 7C112.337 7 110.663 7 109 7" stroke="white" stroke-width="1.5" stroke-linecap="round" stroke-linejoin="round"/>
<path d="M133 58.0997C132.95 58.0495 132.879 58.0157 132.801 58.0043C132.723 57.9928 132.642 58.0046 132.574 58.0374C131.26 58.9253 129.746 59.6575 129 61" stroke="white" stroke-width="1.5" stroke-linecap="round" stroke-linejoin="round"/>
<path d="M133 56C132.613 57.0764 132.567 58.2539 131.832 59.2379C131.096 60.222 130.429 61.2114 129 60.9606" stroke="white" stroke-width="1.5" stroke-linecap="round" stroke-linejoin="round"/>
<path d="M138 7.50498C138.101 7.76584 138.026 8.02097 138.198 8.30334C138.458 8.72473 138.717 9.05869 139.555 8.99132C140.392 8.92396 140.784 8.5169 140.854 8.07687C140.951 7.38745 140.956 6.69229 141 6" stroke="white" stroke-width="1.5" stroke-linecap="round" stroke-linejoin="round"/>
<path d="M125 7C123.431 7 121.841 7 120.294 7C118.529 7 116.765 7 115 7" stroke="white" stroke-width="1.5" stroke-linecap="round" stroke-linejoin="round"/>
<path d="M107 7C105.665 7 104.329 7 103 7" stroke="white" stroke-width="1.5" stroke-linecap="round" stroke-linejoin="round"/>
<path d="M102 7C100.333 7 98.6667 7 97 7" stroke="white" stroke-width="1.5" stroke-linecap="round" stroke-linejoin="round"/>
<path d="M147 49C147.498 49.282 147.893 49.6428 148.154 50.053C148.562 50.788 149.192 51.4522 150 52" stroke="white" stroke-width="1.5" stroke-linecap="round" stroke-linejoin="round"/>
<path d="M115 52C115.72 52.9112 116.667 53.4621 117 55" stroke="white" stroke-width="1.5" stroke-linecap="round" stroke-linejoin="round"/>
</svg>
