<svg width="181" height="190" viewBox="0 0 181 190" fill="none" xmlns="http://www.w3.org/2000/svg">
<circle cx="91" cy="106" r="65" fill="#BC6081"/>
<path d="M93.2315 61.6174C91.2987 61.5788 90.3091 60.1709 89.1611 58.9101C87.2631 56.8486 86.1344 54.2689 84.3755 52.103C82.0137 49.1946 79.1647 47.2414 75.4461 46.7309C71.8279 46.232 68.5538 44.7971 65.183 43.4898C60.7635 41.7828 55.9835 41.2253 51.2901 41.8693C45.9363 42.5848 43.559 46.3132 43.9881 50.9582C44.3515 54.7176 45.082 58.4421 45.7044 62.1744C45.832 62.9479 46.0407 63.7988 46.6669 64.2861C49.6821 66.6376 49.6086 69.9715 49.3032 73.1817C48.9167 77.1653 50.1537 80.4412 52.8518 83.2375C54.2765 84.7829 55.8281 86.2061 57.4905 87.4919C60.4979 89.7004 62.6201 92.5431 64.2359 95.8383C64.5133 96.4368 64.8378 97.0123 65.2062 97.5594C66.7524 99.7408 68.5924 100.329 71.9323 98.6617C78.7357 95.2659 85.5738 91.816 90.3053 85.5581C93.6954 81.0755 95.2996 75.8426 95.9335 70.3003C96.0268 69.0556 96.4137 67.8508 97.0623 66.7846C98.222 67.7128 98.4191 69.0433 98.6085 70.3042C100.104 79.4705 105.625 85.9836 112.555 91.5762C113.889 92.6475 115.362 93.5487 116.808 94.4885C119.092 95.9814 119.367 96.8284 118.953 99.7176C118.404 103.516 117.043 107.008 115.246 110.342C112.799 114.886 110.147 119.326 106.15 122.699C103.17 125.217 99.9653 127.487 96.8999 129.885C95.7828 130.759 94.7082 131.691 93.39 132.782C90.6377 128.992 86.0454 127.344 82.9955 123.886C80.9055 121.472 79.7482 118.39 79.733 115.196C79.6711 112.875 79.4005 110.535 80.0461 108.234C80.1852 107.727 80.3205 107.043 79.8876 106.505" stroke="white" stroke-width="1.5" stroke-linecap="round" stroke-linejoin="round"/>
<path d="M119.324 96.2134C123.291 98.2128 127.032 100.631 130.484 103.427C132.32 104.943 134.118 106.907 133.213 109.742C132.865 110.825 132.2 111.808 131.694 112.837C129.177 118.011 126.854 123.244 125.478 128.88C123.847 135.547 124.983 141.612 128.783 147.266C130.139 149.283 131.427 151.345 132.649 153.454C133.321 154.615 133.553 155.775 132.328 156.966C131.238 158.045 130.867 159.585 131.284 161.317C133.839 158.672 137.083 158.127 140.403 157.91C144.597 157.639 148.764 158.513 152.966 158.297C157.427 158.061 161.47 156.247 162.564 150.538C163.113 147.638 162.889 144.613 162.441 141.643C161.784 137.323 161.246 132.987 160.481 128.69C159.464 122.993 157.922 117.474 154.509 112.635C151.416 108.296 146.777 106.575 141.942 105.318C135.981 103.771 130.615 101.226 126.093 96.9831C124.708 95.7273 123.145 94.6846 121.454 93.889C119.486 92.9259 119.135 93.0651 118.551 95.2504" stroke="white" stroke-width="1.5" stroke-linecap="round" stroke-linejoin="round"/>
<path d="M139.618 187.491C143.998 187.17 148.381 186.872 152.761 186.512C154.919 186.347 157.056 185.969 159.139 185.383C160.635 184.949 161.304 184.044 161.88 182.675C162.886 180.143 163.425 177.448 163.472 174.723C163.627 169.827 164.161 164.853 162.618 160.026C161.895 157.76 161.806 157.752 159.526 158.653C156.685 159.771 153.642 159.895 150.635 159.999C147.032 160.127 143.418 160.053 139.811 159.999C138.393 159.999 137.105 160.452 135.756 160.796C134.624 161.086 134.295 161.813 134.778 162.916C135.138 163.735 135.3 164.675 135.783 165.402C136.382 166.331 136.697 167.415 136.688 168.52C136.758 172.971 136.808 177.415 136.344 181.863C136.155 183.662 136.073 185.472 135.957 187.278" stroke="white" stroke-width="1.5" stroke-linecap="round" stroke-linejoin="round"/>
<path d="M106.181 164.498C106.471 163.148 105.938 162.456 104.248 162.177C97.3832 161.063 90.4677 161.218 83.5716 161.644C80.9971 161.802 78.4033 161.922 75.8404 162.081C66.1198 162.681 56.4559 163.746 46.8487 165.275C44.9662 165.577 43.1107 166.049 41.2398 166.436C40.3919 166.617 39.639 167.101 39.1214 167.797C38.3754 168.745 38.445 169.886 39.508 170.261C45.9055 172.481 47.56 178.158 49.5585 183.643C50.2697 185.577 50.8921 187.607 52.2644 189.259" stroke="white" stroke-width="1.5" stroke-linecap="round" stroke-linejoin="round"/>
<path d="M26.1639 101.84C26.1639 103.828 27.2463 104.961 29.0979 105.553C30.0333 104.296 29.0747 103.174 28.8543 102.037C28.1933 98.5795 27.2192 98.1154 23.8291 99.1055C20.7367 100.007 20.0254 99.9177 20.1877 104.161C20.2457 105.708 20.5743 107.255 20.7405 108.802C21.1271 112.379 24.3316 112.863 26.736 114.216C26.8605 114.288 26.9896 114.351 27.1226 114.406C31.6337 116.15 32.3991 117.31 31.5757 121.928C29.7036 132.297 26.8562 142.465 23.0715 152.297C21.3358 156.795 20.3385 161.506 19.3953 166.221C18.2619 171.687 17.8152 177.274 18.0655 182.852C18.1738 185.021 18.1699 187.272 19.3876 189.237" stroke="white" stroke-width="1.5" stroke-linecap="round" stroke-linejoin="round"/>
<path d="M70.4248 21.3945C68.2253 24.4886 66.5593 27.7993 66.1727 31.6438C66.0374 33.0632 65.3996 34.2931 65.6702 35.8982C66.5206 41.3593 70.6954 43.5329 75.2452 43.7959C77.5178 43.8771 79.7814 44.1253 82.0176 44.5385C83.1425 44.7744 83.7301 45.4435 83.7069 46.3253C83.6103 50.0151 86.1731 51.2411 88.9679 52.3163C89.4086 52.4865 89.772 52.9158 90.46 52.6335C91.3994 50.7847 91.0283 48.4603 92.0449 46.511C92.5243 45.5905 92.7369 44.5308 93.2394 43.6296C94.5575 41.2471 96.4362 41.0653 98.0327 43.2428C101.125 47.4972 101.987 52.2274 100.955 57.3481C100.53 59.4637 99.2426 60.8986 97.476 61.9893C96.8807 62.3528 96.3164 62.7628 95.7327 63.1496" stroke="white" stroke-width="1.5" stroke-linecap="round" stroke-linejoin="round"/>
<path d="M92.0719 189.251C95.0368 187.588 96.5019 184.768 97.2324 181.693C98.4694 176.514 101.001 172.175 104.608 168.338C105.412 167.484 106.514 166.575 105.992 165.051C101.353 167.646 96.2197 168.408 91.1017 169.108C81.9403 170.369 72.7209 170.895 63.4668 171.138C58.4415 171.27 53.4163 171.08 48.391 171.053C47.2234 171.011 46.0605 170.882 44.912 170.667C44.2935 170.574 44.1737 170.121 44.5255 169.506" stroke="white" stroke-width="1.5" stroke-linecap="round" stroke-linejoin="round"/>
<path d="M105.601 164.672C103.07 163.532 100.313 163.682 97.6732 163.582C91.5501 163.35 85.4309 163.86 79.3118 164.224C75.2413 164.467 71.1941 164.843 67.143 165.28C60.0613 166.053 52.9409 166.637 46.0718 168.734" stroke="white" stroke-width="1.5" stroke-linecap="round" stroke-linejoin="round"/>
<path d="M77.7692 96.0391C78.8013 97.6519 79.7948 99.2879 80.8617 100.862C81.2392 101.449 81.4931 102.107 81.6077 102.796C81.8628 104.022 81.5575 104.366 80.2625 104.343C79.5474 104.343 79.0371 104.73 78.5307 105.116C75.8976 107.142 72.8686 108.591 69.6399 109.371C67.2858 109.928 66.3503 111.715 65.7743 113.819C64.6147 118.073 64.6379 122.42 65.0012 126.775C65.3878 131.416 65.9522 136.019 67.2819 140.513C67.7806 142.192 68.8282 143.561 69.4853 145.127C71.3949 149.544 70.8692 155.887 67.7149 158.501C67.0539 159.047 66.4624 159.53 65.5772 159.07" stroke="white" stroke-width="1.5" stroke-linecap="round" stroke-linejoin="round"/>
<path d="M9.54208 96.0382C8.2935 95.5586 6.295 96.073 6.44963 93.6055C8.09636 93.1336 9.78947 92.685 11.4749 92.159C12.6345 91.7993 14.2581 91.5943 14.0957 90.0511C13.9566 88.7477 12.3949 88.7438 11.2855 88.5041C9.68748 88.1161 8.01319 88.1804 6.44963 88.6897C3.95247 89.5522 2.90877 91.6484 2.38691 94.1044C2.21692 95.2152 1.95839 96.3107 1.6138 97.3803C0.5701 100.026 0.744056 101.352 3.02087 102.559C4.59029 103.391 6.42256 104.033 8.27416 102.872C7.88761 101.662 6.85937 100.672 7.43534 99.3257" stroke="white" stroke-width="1.5" stroke-linecap="round" stroke-linejoin="round"/>
<path d="M139.232 187.702C131.373 187.702 123.511 187.652 115.652 187.702C109.788 187.748 103.928 187.965 98.0636 188.062C96.4671 188.085 95.1644 189.087 93.6182 189.222" stroke="white" stroke-width="1.5" stroke-linecap="round" stroke-linejoin="round"/>
<path d="M180.207 188.088C167.321 188.088 154.436 188.088 141.551 188.088C140.909 188.088 140.229 188.32 139.618 187.91" stroke="white" stroke-width="1.5" stroke-linecap="round" stroke-linejoin="round"/>
<path d="M41.2397 111.512C41.808 115.886 41.7229 120.268 41.4523 124.662C41.3441 126.394 41.4523 128.143 41.4523 129.883C41.4523 136.651 41.4523 143.42 41.4523 150.188C41.4523 150.83 41.2204 151.511 41.6302 152.122" stroke="white" stroke-width="1.5" stroke-linecap="round" stroke-linejoin="round"/>
<path d="M93.8114 62.005C98.6704 60.7906 99.4667 58.2031 99.544 53.4962C99.5943 50.5645 99.1575 47.6058 97.128 45.1537C96.7432 44.6998 96.2555 44.3444 95.7055 44.1172C93.9158 45.1344 93.5872 46.8245 93.1813 48.6501C92.1801 53.1481 91.925 57.5843 93.6181 62.005" stroke="white" stroke-width="1.5" stroke-linecap="round" stroke-linejoin="round"/>
<path d="M37.5674 166.817C39.9292 165.085 42.7202 164.497 45.4957 163.932C50.7296 162.884 56.0409 162.385 61.3445 161.774C62.2057 161.732 63.0514 161.528 63.8378 161.174C65.5734 160.246 65.8131 159.001 64.8235 157.148C62.191 152.217 58.5033 148.45 53.2268 146.319C48.2016 144.277 45.3488 146.357 43.1183 150.186C41.3866 153.157 41.3866 156.143 41.9973 159.306C42.1326 160.002 42.1365 160.726 42.2022 161.433" stroke="white" stroke-width="1.5" stroke-linecap="round" stroke-linejoin="round"/>
<path d="M16.6934 108.592L19.3065 110.007C19.6931 108.31 19.3065 106.913 19.0166 105.498C18.9157 105.059 18.8498 104.613 18.8194 104.163C18.6571 100.149 18.6184 99.4719 22.685 97.9752C23.3285 97.6902 23.9545 97.3673 24.5598 97.0083C23.7867 95.4187 22.3294 95.4071 21.1581 95.7281C18.7711 96.411 16.5773 97.6442 14.7529 99.3288C13.8831 100.102 13.8947 101.089 14.0107 102.036C14.2929 104.357 15.3095 106.434 16.504 108.422" stroke="white" stroke-width="1.5" stroke-linecap="round" stroke-linejoin="round"/>
<path d="M25.7773 95.6543C26.4113 95.2212 26.937 95.7704 27.5091 95.8825C28.5025 96.0798 29.4419 96.6135 30.4238 96.7721C31.1196 96.8842 32.1169 97.2014 32.515 96.2229C32.8552 95.3759 32.1053 94.8808 31.5757 94.494C30.7716 93.9294 29.9599 93.3956 28.8698 93.2873C25.3908 92.947 23.1449 90.6767 21.1387 88.0931C20.8364 87.8062 20.5762 87.4781 20.3655 87.1184C19.8978 85.9582 19.0628 85.1846 17.8491 85.6255C17.3021 85.8314 16.8276 86.1932 16.484 86.6661C16.1405 87.1391 15.9431 87.7024 15.9163 88.2865C15.8003 89.5976 16.4111 90.5104 17.6442 90.9938C18.2897 91.2491 18.916 91.6591 19.577 91.7403C22.4104 92.0884 24.3239 93.6161 25.7889 95.9947C26.7979 97.6346 32.3256 99.4756 33.377 98.2379C35.3755 95.9173 37.4088 97.6152 39.2836 97.681C41.5566 97.7622 44.0151 98.5164 45.77 100.002C46.8794 100.93 48.2943 100.412 49.1447 101.444" stroke="white" stroke-width="1.5" stroke-linecap="round" stroke-linejoin="round"/>
<path d="M82.0214 5.71092C85.6511 6.40323 88.4691 8.48016 91.1209 10.9168C94.0819 13.6435 96.8806 16.5983 100.398 18.6521C103.842 20.6594 104.728 20.8605 105.934 16.5287C107.928 9.36198 104.716 5.19653 98.4191 2.50465C94.4536 0.837973 90.0448 0.546618 85.8947 1.67698C84.1397 2.12949 82.4156 2.76378 81.9904 4.93353C81.914 5.15089 81.79 5.34843 81.6275 5.5117C81.465 5.67497 81.268 5.79986 81.0511 5.87724C78.9521 6.47285 78.465 8.12046 78.1481 9.96533C77.7615 12.2859 77.5837 12.4948 75.0556 12.4754C67.5672 12.356 60.2423 14.6714 54.1816 19.0736C53.0721 19.8472 52.1096 20.8643 51.0891 21.781" stroke="white" stroke-width="1.5" stroke-linecap="round" stroke-linejoin="round"/>
<path d="M65.2063 34.7182C64.3133 35.0508 64.2592 35.9675 63.8263 36.652C62.28 39.019 59.8447 39.2859 57.2819 39.4058C54.1894 39.5489 51.0506 39.4058 48.0045 40.3224C43.13 41.7805 40.6599 46.178 42.0129 51.175C42.3991 52.5118 42.7113 53.8688 42.9484 55.2399C43.0257 55.7079 43.4857 56.3461 42.5618 56.7135C39.0828 55.6035 36.489 52.521 37.3588 48.0809C37.5084 47.5136 37.5697 46.9265 37.5404 46.3405C37.0456 42.1634 39.1137 39.0732 41.8235 36.2846C43.6162 34.4962 44.9618 32.3097 45.7509 29.903C46.6632 27.1415 48.3679 24.7242 50.3239 22.5352" stroke="white" stroke-width="1.5" stroke-linecap="round" stroke-linejoin="round"/>
<path d="M57.2818 101.242C59.435 101.877 61.7079 101.892 63.8533 102.565C65.214 102.991 66.2963 103.621 67.0076 104.843C66.621 105.756 65.8904 105.675 65.1985 105.69C60.2235 105.814 55.3645 105.199 50.7026 103.37C49.543 102.917 49.1564 102.596 49.1564 102.016C49.1835 100.813 50.1499 100.875 50.8921 100.875C56.1492 100.875 61.4644 99.8616 66.5708 102.155C67.831 102.72 68.8592 103.281 69.4468 104.526C68.6737 106.317 67.2047 106.8 65.3879 106.87C60.0541 107.132 54.7248 106.271 49.744 104.344C48.2681 103.819 46.8985 103.033 45.7006 102.024C42.929 99.5213 39.6935 98.4809 36.0212 98.7477" stroke="white" stroke-width="1.5" stroke-linecap="round" stroke-linejoin="round"/>
<path d="M93.8113 62.1797C94.1012 62.8875 94.6695 63.2781 95.4387 63.5875C93.7301 66.4148 93.5059 69.6288 93.2392 72.8157C92.7058 78.9034 90.9199 84.2716 85.5081 87.9343C82.8292 89.7521 80.0963 91.5892 78.1132 94.2618C77.8195 94.6485 78.2138 94.7955 78.1403 95.0353" stroke="white" stroke-width="1.5" stroke-linecap="round" stroke-linejoin="round"/>
<path d="M55.349 119.246C53.4472 122.193 52.1986 125.283 51.9976 128.915C51.7505 133.943 49.6212 138.695 46.033 142.224C45.1517 143.106 44.3399 144.014 43.416 144.997C44.135 145.825 44.9043 145.662 45.6851 145.353C51.4834 143.032 59.2803 144.919 62.9217 150.941C63.9808 152.693 65.156 154.329 65.6276 156.356C65.7281 156.793 65.9059 157.13 65.5966 157.516" stroke="white" stroke-width="1.5" stroke-linecap="round" stroke-linejoin="round"/>
<path d="M104.635 19.0719C103.665 17.432 103.112 15.5678 101.929 14.0439C98.3263 9.40277 93.5252 6.46337 87.9898 4.84283C86.1053 4.24018 84.0743 4.27962 82.2146 4.95499" stroke="white" stroke-width="1.5" stroke-linecap="round" stroke-linejoin="round"/>
<path d="M99.9963 26.4219C101.589 28.6844 101.713 31.3725 102.111 33.9638C102.609 37.1817 102.926 40.3686 104.728 43.308C105.617 44.7506 105.648 46.7889 105.648 48.6608C105.648 52.1185 105.431 55.4833 104.102 58.7167C103.548 60.0267 102.814 61.253 101.921 62.36C100.325 64.3712 98.597 64.6806 95.9568 63.733" stroke="white" stroke-width="1.5" stroke-linecap="round" stroke-linejoin="round"/>
<path d="M37.1809 170.297C37.7066 171.774 38.9475 172.478 40.2734 173.004C45.5228 175.027 47.0999 181.935 44.5255 185.381C43.4147 186.836 42.1147 188.137 40.6599 189.248" stroke="white" stroke-width="1.5" stroke-linecap="round" stroke-linejoin="round"/>
<path d="M82.9878 15.3789C86.2233 20.7627 91.1055 23.9767 96.9038 25.9878C97.4798 26.189 98.1833 26.0149 98.8366 26.0149" stroke="white" stroke-width="1.5" stroke-linecap="round" stroke-linejoin="round"/>
<path d="M80.8618 6.30859C81.0242 8.8419 80.3129 11.4448 81.7779 13.8814C82.3037 14.7594 82.7405 15.1578 83.7571 15.2312C86.6796 15.4292 89.4542 16.5908 91.6467 18.5342C94.3526 20.9051 96.7725 23.5853 99.3779 26.2076C102.725 25.8634 104.593 23.6356 104.233 20.2321" stroke="white" stroke-width="1.5" stroke-linecap="round" stroke-linejoin="round"/>
<path d="M34.0883 98.1484C37.5325 99.5563 42.4959 104.194 42.206 109.558C42.1442 110.718 41.0463 111.836 40.0877 111.465C37.8843 110.606 35.7157 109.62 34.0961 107.806C33.2727 106.87 32.8629 105.71 33.5394 104.549C34.0961 103.613 36.3497 103.389 37.3586 104.163C38.4208 104.933 39.3124 105.915 39.9776 107.046C40.6428 108.178 41.0672 109.434 41.2242 110.738" stroke="white" stroke-width="1.5" stroke-linecap="round" stroke-linejoin="round"/>
<path d="M80.6685 104.934C80.4713 106.156 79.2923 106.45 78.5153 107.022C75.821 109.005 72.7324 110.386 69.4583 111.072C68.9287 111.184 68.2639 111.338 67.7266 110.909" stroke="white" stroke-width="1.5" stroke-linecap="round" stroke-linejoin="round"/>
<path d="M8.96226 92.3443C5.84661 91.7835 4.90342 92.5571 4.90342 95.6512C4.92663 96.0376 4.92663 96.425 4.90342 96.8115C4.74493 98.1381 5.13923 98.9155 6.65453 98.7646C6.89419 98.7414 7.16478 99.0044 7.42764 99.132" stroke="white" stroke-width="1.5" stroke-linecap="round" stroke-linejoin="round"/>
<path d="M26.3571 101.066C25.5608 102.246 23.9257 101.38 23.0753 102.505C23.3898 102.882 23.7695 103.199 24.1963 103.441C25.7425 104.497 25.9976 106.779 24.5828 107.982C23.2685 109.099 21.819 110.349 19.7896 109.769" stroke="white" stroke-width="1.5" stroke-linecap="round" stroke-linejoin="round"/>
<path d="M19.5925 94.1045C18.9702 92.5265 16.7823 91.5906 15.1781 92.6078C12.3562 94.3946 9.07048 95.7019 7.41602 98.9391" stroke="white" stroke-width="1.5" stroke-linecap="round" stroke-linejoin="round"/>
<path d="M70.4246 24.1016C69.5278 26.7548 67.912 29.0328 66.5591 31.4501" stroke="white" stroke-width="1.5" stroke-linecap="round" stroke-linejoin="round"/>
<path d="M66.5591 111.299C63.9769 110.738 62.4771 112.769 60.5675 113.833C60.0774 114.174 59.6216 114.563 59.2068 114.993" stroke="white" stroke-width="1.5" stroke-linecap="round" stroke-linejoin="round"/>
<path d="M24.2312 94.6666C19.8631 93.6146 16.3687 95.3435 13.2144 98.1475" stroke="white" stroke-width="1.5" stroke-linecap="round" stroke-linejoin="round"/>
<path d="M77.5759 12.5C78.7356 13.6603 80.0035 14.6813 81.828 14.4338" stroke="white" stroke-width="1.5" stroke-linecap="round" stroke-linejoin="round"/>
<path d="M11.8613 94.4943C11.6062 93.6241 10.7635 93.5119 10.1218 93.1406" stroke="white" stroke-width="1.5" stroke-linecap="round" stroke-linejoin="round"/>
</svg>
