<svg width="204" height="149" viewBox="0 0 204 149" fill="none" xmlns="http://www.w3.org/2000/svg">
<circle cx="91" cy="83" r="65" fill="#BC6081"/>
<path d="M202.611 104.262C194.636 104.262 186.763 105.265 179.353 108.382C173.584 110.827 168.445 114.554 164.324 119.282C160.395 123.707 158.329 129.041 155.755 134.149C154.059 137.521 152.268 140.777 149.332 143.313C147.281 145.099 144.767 146.266 142.082 146.677C141.067 146.844 140.4 147.709 139.262 147.564C135.846 147.213 132.535 146.177 129.525 144.519C123.269 140.886 119.114 135.276 115.192 129.433C114.396 128.02 113.451 126.697 112.372 125.488" stroke="white" stroke-width="2" stroke-linecap="round" stroke-linejoin="round"/>
<path d="M58.3968 7.10617C58.0705 8.68304 58.3968 10.2599 58.433 11.8295C58.4683 16.2475 59.3112 20.6216 60.9197 24.7351C62.6669 29.0442 65.0956 32.8519 69.4238 34.9084C73.752 36.9649 77.5581 34.7413 79.0298 30.8536C80.3493 27.3801 80.0013 23.8994 79.2763 20.4623C78.2122 15.0566 76.0826 9.91812 73.0125 5.34764C69.3876 0.108383 62.9569 0.0284488 58.7448 2.86244C54.5326 5.69644 50.4509 8.7993 46.478 11.9894C44.0203 13.9659 43.3678 17.0034 42.8531 19.9827C41.6641 26.5227 42.2876 33.0191 43.1938 39.5009C43.9913 45.1907 45.7675 50.6552 47.7467 56.0253C51.2335 65.2883 55.2791 74.3302 59.8613 83.1009C63.3339 89.8661 66.9734 96.5514 70.8593 103.091C70.953 103.292 71.0025 103.51 71.0043 103.731" stroke="white" stroke-width="2" stroke-linecap="round" stroke-linejoin="round"/>
<path d="M71.454 104.185C70.5986 103.793 69.7866 104.294 68.9383 104.294C46.2898 104.251 23.6437 104.238 1 104.258" stroke="white" stroke-width="2" stroke-linecap="round" stroke-linejoin="round"/>
<path d="M56.5122 39.4036C57.2372 39.3454 57.4257 39.7887 57.8027 40.3192C61.6693 45.7692 65.2724 51.3936 68.6122 57.1924C71.9689 63.0057 74.9848 69.0007 77.7978 75.1119C79.9727 79.8062 81.7924 84.6167 83.5469 89.4708C84.2284 91.3747 84.7576 93.3367 85.2651 95.2842C85.3811 95.7347 85.7146 95.9018 85.9249 96.2216" stroke="white" stroke-width="2" stroke-linecap="round" stroke-linejoin="round"/>
<path d="M111.524 120.64C115.736 118.024 118.418 114.1 120.419 109.74C121.456 107.488 120.985 105.017 119.557 102.844C116.961 98.9057 113.307 96.2388 109.342 93.8481C106.462 92.0005 103.325 90.5923 100.033 89.6698C98.2244 89.1452 96.3139 89.0811 94.4745 89.4833C92.6351 89.8856 90.9249 90.7414 89.4988 91.9733C87.9256 93.2886 87.7008 95.6066 85.8739 96.7111C86.2871 97.1835 85.7506 97.6485 85.8739 98.1209" stroke="white" stroke-width="2" stroke-linecap="round" stroke-linejoin="round"/>
<path d="M73.8247 107.566C74.2959 109.071 75.5284 110.073 76.3332 111.352C77.7469 113.62 80.3423 114.179 82.365 115.531C85.4365 117.616 88.884 119.083 92.5148 119.847C97.1514 120.773 101.956 120.331 106.348 118.575C108.298 117.849 110.27 117.057 111.857 115.596" stroke="white" stroke-width="2" stroke-linecap="round" stroke-linejoin="round"/>
<path d="M57.9257 7.91797C56.657 8.24497 55.7073 9.13877 54.627 9.8073C53.7716 10.345 54.0761 11.3188 54.0471 11.9873C53.7426 19.363 54.917 26.368 59.4989 32.4575C60.8692 34.2741 62.6816 35.6693 64.2838 37.3988C62.3191 38.9611 59.7527 38.7359 57.614 39.6951" stroke="white" stroke-width="2" stroke-linecap="round" stroke-linejoin="round"/>
<path d="M78.6893 113.867C78.6525 114.209 78.6885 114.555 78.7947 114.882C78.9009 115.209 79.075 115.509 79.3055 115.764C82.4374 118.99 85.7651 121.911 90.0063 123.641C93.4082 124.967 97.0928 125.394 100.707 124.883C102.737 124.644 104.796 124.447 106.507 123.154" stroke="white" stroke-width="2" stroke-linecap="round" stroke-linejoin="round"/>
<path d="M91.5795 96.7109C90.1295 98.3387 89.912 99.4069 90.9632 100.947C94.8202 106.586 99.5326 111.186 106.188 113.424C107.635 113.921 109.112 114.324 110.61 114.631C111.684 114.799 112.675 115.309 113.438 116.084" stroke="white" stroke-width="2" stroke-linecap="round" stroke-linejoin="round"/>
<path d="M91.4272 95.918C92.3987 97.691 93.9357 98.9845 95.3784 100.278C98.0059 102.732 100.836 104.959 103.839 106.934C107.672 109.484 112.145 110.899 116.744 111.018C117.164 111.018 117.396 110.502 117.846 110.698" stroke="white" stroke-width="2" stroke-linecap="round" stroke-linejoin="round"/>
<path d="M117.215 111.191C116.774 112.845 115.831 114.32 114.518 115.413C113.133 116.554 112.234 118.109 110.719 119.192C111.959 120.645 111.176 121.99 110.77 123.312" stroke="white" stroke-width="2" stroke-linecap="round" stroke-linejoin="round"/>
<path d="M111.241 126.147C111.241 125.565 111.241 124.991 111.241 124.417C111.284 124.187 111.243 123.949 111.126 123.747C111.009 123.544 110.823 123.39 110.603 123.313C108.769 122.622 106.978 121.859 104.941 121.896" stroke="white" stroke-width="2" stroke-linecap="round" stroke-linejoin="round"/>
</svg>
