<svg width="211" height="150" viewBox="0 0 211 150" fill="none" xmlns="http://www.w3.org/2000/svg">
<circle cx="112" cy="85" r="65" fill="#BC6081"/>
<path d="M82 37.0268C80.7104 36.9332 79.4208 36.7479 78.1311 36.761C73.6783 36.8134 69.2309 36.585 64.7817 36.4951C62.0183 36.4409 59.2548 36.5588 56.4914 36.3472C52.6833 36.0552 48.8734 36.3622 45.069 36.16C42.3351 36.0103 39.6048 36.0515 36.8726 36.0009C35.8243 35.9803 34.7982 36.3098 33.7407 36.1881C33.3464 36.1451 33.2046 36.3473 33.188 36.7497C33.1254 37.8112 32.9743 38.8613 33.0038 39.9321C33.0443 41.5215 32.9725 43.1145 33.0222 44.702C33.1199 47.8189 33.1346 50.9395 33.247 54.062C33.3151 55.934 33.2175 57.8172 33.4146 59.678C33.5878 61.3066 33.4607 62.9278 33.5804 64.5452C33.7518 66.8833 33.8199 69.2252 33.9913 71.5577C34.0686 72.6079 34.041 73.6862 34.2492 74.7532C34.3892 75.4627 34.7742 75.5694 35.2274 75.6612C36.1036 75.8647 36.9956 75.99 37.8933 76.0356C39.9566 76.0786 42.0053 76.3426 44.0576 76.4886C45.2441 76.5728 46.5153 76.3257 47.6483 76.906C48.0794 77.1269 48.4552 76.8911 48.8495 76.8761C51.8266 76.7619 54.802 76.7806 57.781 76.7975C61.1561 76.8143 64.5312 76.7975 67.9137 76.7975C68.1274 76.7975 68.3429 76.7675 68.5585 76.7525" stroke="white" stroke-width="1.5" stroke-linecap="round" stroke-linejoin="round"/>
<path d="M177 112.539C176.239 111.505 175.609 110.368 174.508 109.615C174.102 109.336 173.649 108.885 173.223 109.027C172.709 109.197 172.792 109.915 172.779 110.352C172.719 111.666 172.585 112.977 172.376 114.276C171.93 117.461 171.203 120.582 169.576 123.39C168.549 125.164 167.054 126.376 164.797 126.544C163.193 126.663 161.599 126.946 159.986 127.081C157.551 127.286 155.121 127.496 152.679 127.629C150.706 127.737 148.736 127.889 146.758 127.995C144.23 128.128 141.702 128.243 139.171 128.386C138.029 128.45 136.88 128.397 135.748 128.532C134.083 128.729 132.406 128.566 130.752 128.746C129.642 128.866 128.531 128.78 127.421 128.892C125.358 129.098 123.278 128.921 121.23 129.111C119.555 129.266 117.884 129.076 116.234 129.272C114.321 129.498 112.396 129.259 110.498 129.465C108.599 129.672 106.66 129.44 104.762 129.639C102.356 129.891 99.9396 129.619 97.5452 129.835C95.9669 129.977 94.3996 129.887 92.8268 129.992C91.9941 130.048 91.2558 129.809 90.5138 129.524C90.4141 129.498 90.3207 129.452 90.2393 129.389C90.1579 129.326 90.0902 129.248 90.0402 129.158C88.93 127.074 87.8197 124.987 87 122.764" stroke="white" stroke-width="1.5" stroke-linecap="round" stroke-linejoin="round"/>
<path d="M92.6793 118.229C93.214 116.485 93.991 114.815 94.3443 113.012C94.5441 111.983 94.731 110.954 94.8401 109.899C94.9289 109.041 95.0418 108.186 94.9844 107.334C94.7865 104.404 94.1334 101.627 92.3296 99.1784C90.8496 97.1636 88.7296 96.1324 86.4781 95.3742C83.9399 94.5188 81.2981 94.0463 78.6341 93.6745C75.1616 93.1891 71.6688 93.0847 68.1816 93.0078C66.5474 92.9779 64.9128 93.0341 63.2846 93.1763C58.5227 93.5737 53.7997 94.1525 49.2246 95.6782C45.6782 96.8596 43.399 99.2296 41.7432 102.391C39.2365 107.175 37.6103 112.261 36.3782 117.491C35.7692 119.964 35.309 122.472 35 125" stroke="white" stroke-width="1.5" stroke-linecap="round" stroke-linejoin="round"/>
<path d="M128.886 49.1684C128.434 49.4891 127.933 49.5581 127.391 49.5413C125.879 49.5171 124.362 49.4481 122.854 49.5562C121.269 49.67 119.665 49.724 118.135 50.2722C117.715 50.4151 117.329 50.6473 117.002 50.9538C116.676 51.2603 116.415 51.6341 116.239 52.051C115.925 52.7539 116.215 53.1398 116.965 53.0727C117.93 52.987 118.689 52.4574 119.411 51.8589C119.81 51.5289 119.592 51.1131 119.5 50.7402C119.079 49.1572 118.424 47.6581 117.756 46.1852C116.262 42.8868 114.671 39.6313 113.05 36.4001C111.944 34.1317 110.676 31.9505 109.257 29.8742C108.003 28.088 106.399 26.9003 104.176 27.0066C102.1 27.1054 100.074 28.433 100.002 31.3659C99.9582 33.4057 100.728 35.2683 101.37 37.1459C102.243 39.6481 103.274 42.0869 104.323 44.522C105.669 47.6525 107.101 50.7327 108.704 53.7309C109.43 55.0771 110.219 56.3729 111.047 57.6464C111.954 59.0579 113.342 59.028 114.687 58.987C115.115 58.974 115.594 58.8789 116.048 58.8509C117.79 58.7428 119.496 58.4053 121.224 58.1461C122.77 57.9131 124.309 57.6073 125.843 57.3574C128.122 56.9845 130.367 56.4251 132.637 56.0131C133.762 55.8043 134.937 55.6402 136 55.1219" stroke="white" stroke-width="1.5" stroke-linecap="round" stroke-linejoin="round"/>
<path d="M162 58C161.879 58.0929 161.766 58.2563 161.64 58.2675C158.983 58.5071 157.572 60.6339 156.01 62.3947C154.683 63.9022 153.773 65.7507 153.377 67.7461C153.116 69.0277 153.24 70.3465 153.301 71.6467C153.353 72.7612 153.683 73.8757 153.805 74.9901C154.019 76.9628 154.426 78.8908 154.811 80.8337C155.531 84.4595 156.266 88.0778 157.065 91.6905C157.648 94.3225 158.272 96.9508 158.807 99.5903C159.406 102.544 160.031 105.499 160.499 108.486C160.774 110.247 161.077 112.015 161.167 113.781C161.271 115.862 160.655 116.675 158.762 117.398C156.463 118.276 154.07 118.698 151.66 119.092C149.68 119.419 147.689 119.484 145.72 119.814C145.477 119.855 145.239 119.935 145 120" stroke="white" stroke-width="1.5" stroke-linecap="round" stroke-linejoin="round"/>
<path d="M47.0428 76.8472C46.165 77.8148 46.0617 78.98 46.012 80.2018C45.9456 81.8279 46.1742 83.4363 46.2406 85.0536C46.2978 86.4661 46.6095 87.8785 46.7515 89.291C46.7976 89.7412 46.9672 89.9177 47.4116 89.9071C49.9934 89.8524 52.5641 90.1102 55.157 89.9424C57.6945 89.78 60.2542 89.9654 62.8028 89.8895C65.0157 89.8242 67.2287 89.6988 69.4416 89.7129C70.2678 89.7129 70.5831 89.0897 70.9169 88.4912C71.4849 87.4936 71.7966 86.4537 71.6454 85.3131C71.6476 85.1321 71.6138 84.9524 71.5458 84.7835C70.4098 82.9226 70.4928 80.8127 70.1479 78.7805C69.9377 77.5446 70.0299 76.3087 69.993 75.0728C69.9654 74.123 70.3157 73.6727 71.2839 73.4838C73.3844 73.0919 75.5033 73.0742 77.6425 73.0583C78.9574 73.0583 80.2925 73.4114 81.6037 73.0318C81.9301 72.94 82.2215 73.0513 82.3211 73.3073C82.3745 73.4395 82.3876 73.5835 82.3589 73.7226C82.3302 73.8617 82.2608 73.9901 82.1588 74.0929C81.672 74.5767 81.1243 74.9492 80.4069 75.0675C79.2156 75.2617 78.0648 75.6784 76.809 75.486C76.4402 75.4312 76.1598 75.7031 76.0436 76.2028C75.7744 77.3557 75.3576 78.468 75.1086 79.6421C74.7177 81.4871 75.1732 81.9091 76.82 82.4512C78.1478 82.889 79.5586 83.025 80.9583 83.1909C83.5308 83.4981 86.1126 83.5988 88.7036 83.7365C94.6344 84.049 100.563 83.8548 106.492 83.8424C108.832 83.8423 111.171 83.7297 113.5 83.5052C115.84 83.2721 118.201 83.1909 120.508 82.6701C122.208 82.287 122.318 81.3865 121.524 80.3519C121.339 80.1206 121.09 79.9034 121.155 79.5627" stroke="white" stroke-width="1.5" stroke-linecap="round" stroke-linejoin="round"/>
<path d="M130 10.739C129.769 10.739 129.483 10.8287 129.315 10.7241C128.274 10.076 127.132 10.2796 126.021 10.2852C125.386 10.2852 125.071 10.1283 124.889 9.43908C124.215 6.89336 122.936 4.71746 120.745 3.18405C119.021 1.97749 117.129 1.335 115.014 1.08659C112.188 0.757869 109.624 1.38542 107.144 2.62373C104.026 4.18142 102.052 6.71966 101.247 10.0947C100.645 12.6217 101.247 15.1095 101.959 17.5525C102.421 19.1364 103.7 19.8816 105.022 20.5259C107.074 21.5252 109.253 22.2069 111.405 22.954C111.681 23.0492 112.016 22.9671 112.331 22.9671" stroke="white" stroke-width="1.5" stroke-linecap="round" stroke-linejoin="round"/>
<path d="M119.31 78.8235C119.142 78.2149 118.558 77.9781 118.102 77.6827C114.211 75.1589 110.116 73.0249 105.677 71.5174C103.75 70.8642 101.836 70.9336 99.8632 71.1615C98.661 71.2949 97.4827 71.4356 96.3597 71.893C96.2822 71.925 96.1458 71.8591 96.0905 71.893C95.6516 72.2489 94.9379 72.4554 95.0043 73.1388C95.0707 73.8223 95.5778 74.269 96.2638 74.5787C98.0027 75.3618 99.8651 75.7356 101.711 76.1521C104.28 76.7341 106.857 77.2822 109.456 77.7539C111.53 78.1276 113.63 78.3608 115.725 78.658C116.916 78.8271 118.089 79.2133 119.321 78.9357C119.424 78.9125 119.57 79.0353 119.69 79.1137C120.492 79.5817 121.394 79.4696 122.271 79.5746C124.508 79.8327 126.756 79.8808 129 80" stroke="white" stroke-width="1.5" stroke-linecap="round" stroke-linejoin="round"/>
<path d="M208.764 122.736C208.9 123.892 209.375 124.96 209.63 126.092C210.045 127.927 210.152 129.77 209.739 131.552C208.349 137.557 204.522 141.541 198.964 144.14C195.742 145.682 192.144 146.284 188.59 145.876C182.432 145.162 177.566 142.236 174.671 136.636C173.897 135.133 173.484 133.459 173.236 131.746C172.967 129.877 172.928 127.983 173.118 126.105C173.473 122.572 174.286 119.138 176.292 116.096C176.955 115.095 177.257 114.066 176.679 112.904C176.611 112.784 176.59 112.644 176.619 112.51C176.648 112.376 176.725 112.257 176.837 112.176C178.35 111.084 179.697 109.773 181.426 109" stroke="white" stroke-width="1.5" stroke-linecap="round" stroke-linejoin="round"/>
<path d="M72 87C72.218 87.28 72.4919 87.532 72.6428 87.8456C73.1068 88.807 73.923 88.9955 74.8789 89.0683C76.6211 89.199 78.3596 89.3857 80.0962 89.5761C81.8776 89.7628 83.6366 90.0521 85.3993 90.3639C88.577 90.8909 91.6547 91.9053 94.5241 93.3712C96.1807 94.2374 97.2018 95.798 98.0906 97.4388C99.5999 100.228 100.472 103.211 101.072 106.304C101.411 108.066 101.659 109.832 101.817 111.62C102.068 114.291 102.061 116.979 101.795 119.647C101.687 120.734 101.437 121.801 101.05 122.821C100.537 124.171 99.3335 124.501 98.0776 124.688C95.972 124.983 93.8664 125.263 91.7422 125.494C90.79 125.599 89.7186 125.328 88.8503 126" stroke="white" stroke-width="1.5" stroke-linecap="round" stroke-linejoin="round"/>
<path d="M113.875 110.071C115.08 108.92 115.555 107.327 116.231 105.882C117.283 103.694 118.19 101.437 118.946 99.1266C119.446 97.5363 119.863 95.9292 119.982 94.2961C120.116 92.3398 119.518 90.6249 117.54 90.127C116.148 89.7777 114.906 90.1586 113.881 91.1489C112.71 92.2766 112.248 93.7759 111.96 95.3217C111.643 96.9106 111.52 98.5329 111.593 100.152C111.775 103.24 112.33 106.293 113.244 109.245C113.339 109.551 113.624 109.802 113.776 110.086C113.959 110.445 113.994 110.924 113.765 111.182C112.439 112.669 111.747 114.568 110.663 116.199C110.004 117.198 109.267 118.15 108.67 119.184C108.327 119.777 107.867 119.771 107.366 119.719C105.165 119.49 102.963 119.243 100.762 118.976C98.7183 118.733 96.6691 118.569 94.6236 118.372C93.5578 118.272 92.5341 118.22 91.505 118.443C91.1784 118.514 90.9106 118.504 90.6831 118.32C90.3437 118.047 89.9695 118.049 89.5824 118.049C87.4727 118.049 85.363 117.936 83.257 118.079C80.4062 118.265 77.5462 118.521 74.8182 119.515C74.513 119.612 74.2333 119.778 74 120" stroke="white" stroke-width="1.5" stroke-linecap="round" stroke-linejoin="round"/>
<path d="M82.1699 36C82.1027 37.1789 81.7861 38.3254 81.7611 39.5169C81.6959 42.1944 81.4522 44.8664 81.3486 47.5438C81.3064 48.6271 81.2834 49.7103 81.2104 50.7936C80.936 54.8197 80.9936 58.8512 81.0358 62.8899C81.0533 64.4285 81.1816 65.9642 81.4196 67.4865C81.7016 69.2919 82.1238 69.5609 84.1751 69.931C86.7061 70.386 89.2237 70.9077 91.7566 71.3519C92.233 71.4401 92.6679 71.6668 93 72" stroke="white" stroke-width="1.5" stroke-linecap="round" stroke-linejoin="round"/>
<path d="M180.792 106.018C179.451 102.695 178.094 99.3839 176.768 96.0504C175.725 93.4202 174.629 90.8121 173.523 88.2058C171.703 83.8371 169.648 79.5627 167.366 75.3998C166.049 73.0335 164.645 70.7078 162.682 68.7549C162.107 68.2012 162.107 68.2012 161.279 68C160.871 68.7845 160.982 69.6114 161.16 70.4125C162.257 75.3592 164.108 80.0788 165.952 84.7966C167.444 88.6236 168.977 92.4382 170.551 96.2405C172.051 99.8804 173.608 103.498 175.15 107.131C175.272 107.47 175.488 107.771 175.775 108C178.197 107.125 180.668 106.278 183 105.104" stroke="white" stroke-width="1.5" stroke-linecap="round" stroke-linejoin="round"/>
<path d="M39 129.25C37.9383 129.17 36.8785 129.075 35.8168 129.007C35.5529 128.977 35.2877 129.045 35.0528 129.204C34.4771 129.577 33.8388 129.759 33.1953 129.733C30.5139 129.719 27.8269 129.592 25.1437 129.753C17.4085 130.211 9.67143 129.835 1.93624 129.959C1.62728 129.959 1.29585 130.105 1 129.847" stroke="white" stroke-width="1.5" stroke-linecap="round" stroke-linejoin="round"/>
<path d="M204.227 123C204.832 123.811 205.115 124.758 205.426 125.69C207.36 131.485 204.188 136.234 199.229 138.485C196.26 139.832 193.044 140.203 189.815 139.902C186.748 139.617 183.81 138.815 181.298 136.905C180.429 136.225 179.656 135.436 179 134.559" stroke="white" stroke-width="1.5" stroke-linecap="round" stroke-linejoin="round"/>
<path d="M130 79C129.351 79.2942 129.244 79.8278 129.285 80.4123C129.41 82.2093 129.095 83.995 129.038 85.7806C128.972 87.7266 128.761 89.6725 128.64 91.626C128.526 93.4777 128.378 95.3331 128.231 97.1829C128.042 99.4456 127.893 101.708 127.629 103.971C127.34 106.422 127.195 108.9 126.621 111.325C126.416 112.172 126.048 112.986 126.007 113.869C125.99 114.272 125.976 114.678 126.314 115" stroke="white" stroke-width="1.5" stroke-linecap="round" stroke-linejoin="round"/>
<path d="M105 25C105.238 25.7249 105.864 26.0174 106.441 26.3816C108.038 27.4008 109.781 28.1386 111.406 29.1136C113.271 30.234 115.027 31.5292 115.466 33.7461C115.837 35.4943 116.347 37.2085 116.992 38.8715C117.761 40.9523 118.714 42.9567 119.841 44.8598C120.521 46.0041 121.627 46.4751 122.733 46.9645C124.399 47.7003 126.239 48.0444 127.826 48.8759C129.194 49.5934 130.59 49.7112 132 50" stroke="white" stroke-width="1.5" stroke-linecap="round" stroke-linejoin="round"/>
<path d="M79 126C78.8899 128.409 78.3377 130.713 77.5654 132.987C76.5439 136.001 74.3486 137.292 71.4755 137.777C70.0063 138.01 68.5154 138.061 67.0346 137.927C64.8547 137.759 62.7269 137.328 60.8424 135.987C59.5681 135.077 59.1703 133.813 59.0294 132.374C58.8788 130.825 59.3383 129.36 59.7071 127.888C59.824 127.5 59.889 127.097 59.9002 126.691" stroke="white" stroke-width="1.5" stroke-linecap="round" stroke-linejoin="round"/>
<path d="M203.706 113C205.114 111.567 206.635 110.244 208.256 109.044C209.183 108.365 209.248 107.889 208.425 106.966C207.24 105.64 205.586 105.017 203.975 104.351C201.363 103.268 198.598 102.655 195.817 102.207C191.652 101.536 187.942 102.445 185.063 105.692C184.566 106.255 183.8 106.66 184.048 107.591" stroke="white" stroke-width="1.5" stroke-linecap="round" stroke-linejoin="round"/>
<path d="M181.969 110.103C182.052 108.917 183.112 108.653 183.697 108C183.926 108.109 184.108 108.299 184.21 108.533C185.286 110.888 185.383 110.078 183.745 112.128C182.221 114.034 180.643 115.871 179.711 118.205C178.843 120.32 178.183 122.517 177.742 124.763C177.388 126.651 176.918 128.54 177.012 130.483C177.098 132.094 177.394 133.684 178.452 135" stroke="white" stroke-width="1.5" stroke-linecap="round" stroke-linejoin="round"/>
<path d="M177 113C175.51 113.93 174.744 115.371 173.843 116.732C171.94 119.57 170.882 122.709 170.354 125.948C169.898 128.721 169.762 131.561 170.691 134.326C170.864 134.879 171.131 135.402 171.48 135.878C172.335 137.011 172.968 137.226 174.346 136.79C174.513 136.735 174.675 136.67 174.839 136.608" stroke="white" stroke-width="1.5" stroke-linecap="round" stroke-linejoin="round"/>
<path d="M129 10.4214C128.571 11.2111 127.718 11.0687 127.105 11.1113C125.34 11.237 123.574 11.4664 121.791 11.3628C120.834 11.3073 119.878 11.6365 118.906 11.52C118.645 11.4904 118.628 11.6864 118.545 11.8104C117.523 13.4212 116.4 14.9692 115.913 16.8852C115.595 18.1317 115.776 19.3006 116.093 20.4972C116.118 20.6276 116.189 20.7444 116.291 20.8262C116.393 20.908 116.521 20.9494 116.65 20.9429C117.43 21.006 118.214 21.006 118.994 20.9429C120.711 20.7302 121.362 19.4171 121.688 17.9061C122.208 15.5018 122.444 13.0717 122.063 10.6101C121.791 8.85125 120.498 7.78784 118.728 8.03567C116.263 8.37966 113.976 9.23593 111.966 10.7913C111.19 11.3905 110.545 12.11 110.183 13.0106C109.748 14.1 110.193 15.1819 110.446 16.2361C110.94 18.3056 112.005 20.1754 112.507 22.2449C112.729 23.1696 113.569 22.9292 114.139 23.1474C114.99 23.4748 115.924 23.5561 116.744 24" stroke="white" stroke-width="1.5" stroke-linecap="round" stroke-linejoin="round"/>
<path d="M165.134 54.2869C165.779 53.7097 165.809 52.8791 165.943 52.1751C166.306 50.2693 166.395 48.3406 165.618 46.4647C165.432 45.955 165.099 45.5027 164.656 45.1572C164.369 44.9442 164.064 44.7155 163.62 44.8791C163.125 45.0551 163 45.4598 162.974 45.8523C162.759 48.535 163.287 51.2241 164.508 53.6622C164.873 54.3837 165.087 55.1949 165.779 55.8038C166.852 56.7506 167.374 56.7312 168.064 55.524C168.505 54.7532 168.682 53.8821 168.784 53.0603C169.162 50.0106 169.108 46.9909 168.098 43.9975C167.372 41.8488 165.943 41.6675 164.011 42.3626C161.669 43.2073 159.739 44.7313 157.656 46.0089C155.658 47.2407 154.904 48.8984 155.01 51.0418C155.066 52.1523 155.01 53.268 155.021 54.3854C155.034 56.1628 155.811 56.3546 157.289 56.4831C158.132 56.5552 158.991 56.4831 159.839 56.4989C160.898 56.52 161.89 56.6749 162.399 57.7307C162.505 57.949 162.79 57.9965 163.051 58" stroke="white" stroke-width="1.5" stroke-linecap="round" stroke-linejoin="round"/>
<path d="M203 113C199.255 116.812 195.387 120.49 191.507 124.155C188.045 127.426 184.53 130.637 180.813 133.572L179 135" stroke="white" stroke-width="1.5" stroke-linecap="round" stroke-linejoin="round"/>
<path d="M126.372 115.756C125.391 117.023 125.177 118.416 125.727 119.904C126.02 120.693 126.775 120.957 127.494 121.197C129.585 121.855 131.74 122.297 133.923 122.515C135.539 122.699 137.167 122.722 138.774 122.912C140.712 123.144 142.576 122.862 144.47 122.696C144.695 122.658 144.914 122.591 145.121 122.496C146.003 122.194 146.231 121.743 145.761 121.019C145.333 120.317 144.745 119.722 144.044 119.284C143.081 118.663 142.032 118.186 140.929 117.866C139.037 117.351 137.154 117.534 135.235 117.652C133.009 117.791 130.757 118.223 128.518 117.685C127.363 117.407 126.988 116.323 126.503 115.457C126.186 114.888 126.813 114.331 127.585 114.373C128.705 114.432 129.749 114.855 130.848 115.018C132.277 115.23 133.703 115.498 135.139 115.647C136.503 115.791 137.192 115.35 137.554 114.091C138.495 110.879 139.247 107.617 139.807 104.319C140.207 101.976 140.708 99.6502 141.093 97.3038C141.348 95.7475 141.466 94.1653 141.669 92.6016C141.902 90.7868 142.195 88.9776 142.397 87.1573C142.488 86.3339 142.514 85.4957 142.565 84.6668C142.716 82.1819 142.927 79.6822 142.774 77.1991C142.604 74.4834 142.278 71.8176 139.809 69.9991C138.638 69.1314 137.458 68.2822 136.162 67.6176C130.809 64.8705 125.128 63.0391 119.294 61.5954C117.037 61.0416 114.759 60.6003 112.481 60.1536C112.001 60.0594 111.488 60.1277 110.988 60.1536C110.861 60.1536 110.641 60.2532 110.628 60.3382C110.354 61.9462 108.939 62.5388 107.798 63.2588C104.876 65.0988 101.716 66.5395 98.4039 67.5419C96.7592 68.0566 95.0743 68.4357 93.3665 68.6754C92.1351 68.8397 90.9803 68.8287 89.8217 68.4502C87.9205 67.8336 87.0586 66.7591 87.0324 64.8557C87.0044 62.8859 86.9205 60.9086 87.219 58.948C87.7505 55.5291 88.4617 52.1399 89.3497 48.7942C90.3291 45.0502 91.4691 41.3578 92.8105 37.7283C94.2826 33.7517 95.7583 29.7769 98.1147 26.1935C98.9822 24.8772 100.105 24.1461 101.757 24.1369C102.559 24.1369 103.363 23.8747 104.182 24.076" stroke="white" stroke-width="1.5" stroke-linecap="round" stroke-linejoin="round"/>
<path d="M34.9138 125.096C34.2618 124.943 33.5973 125.019 32.9382 125.018C30.6357 125.008 28.3326 125.008 26.0288 125.018C25.217 125.018 24.8363 125.403 25.0662 126.088C25.1613 126.372 25.1362 126.664 25.2368 126.918C25.4038 127.336 25.4254 127.789 26.2013 127.877C27.5195 128.024 28.8306 128.23 30.1525 128.336C31.5588 128.447 32.9525 128.698 34.3714 128.668C34.6588 128.668 34.806 128.866 35 129" stroke="white" stroke-width="1.5" stroke-linecap="round" stroke-linejoin="round"/>
<path d="M144.983 48C144.461 48.2513 143.899 48.1862 143.357 48.1862C142.009 48.2067 141.051 49.2157 141.008 50.6064C140.964 51.8687 141.094 53.0788 141.633 54.2387C141.755 54.5339 141.942 54.7956 142.18 55.0025C142.418 55.2095 142.7 55.356 143.003 55.4302C145.224 55.9589 147.448 56.4709 149.689 56.9047C150.231 57.0108 150.885 57.1281 151.404 56.6552C151.469 56.5956 151.646 56.6105 151.662 56.5565C152.071 55.1565 153.189 54.0283 152.972 52.3676C152.851 51.4368 152.741 50.5804 152.123 49.8617" stroke="white" stroke-width="1.5" stroke-linecap="round" stroke-linejoin="round"/>
<path d="M203 113C201.351 111.341 199.566 109.854 197.41 108.798C195.808 107.991 194.077 107.447 192.288 107.189C189.505 106.783 186.66 107.033 184 107.917" stroke="white" stroke-width="1.5" stroke-linecap="round" stroke-linejoin="round"/>
<path d="M53 125C52.8025 125 52.579 125 52.3502 125C49.8144 125 47.2803 125 44.7389 125C41.4941 125 38.2431 125 35 125" stroke="white" stroke-width="1.5" stroke-linecap="round" stroke-linejoin="round"/>
<path d="M143 119C142.81 119.401 142.628 119.716 142.284 119.663C139.865 119.384 137.45 120.07 135.038 119.994C132.979 119.921 130.92 119.61 128.865 119.583C127.914 119.583 126.961 119.179 126 119.49" stroke="white" stroke-width="1.5" stroke-linecap="round" stroke-linejoin="round"/>
<path d="M90 119C89.3066 119.703 88.3567 119.552 87.5235 119.692C85.4751 120.035 83.4143 120.291 81.3411 120.461C79.8976 120.581 78.4613 120.803 77.0072 120.789C76.2996 120.789 75.6115 121.068 74.8845 120.984C74.5307 120.945 74.2087 120.955 74 120.611" stroke="white" stroke-width="1.5" stroke-linecap="round" stroke-linejoin="round"/>
<path d="M145.58 50.9991C145.733 51.0746 145.949 51.2587 146.032 51.2127C147.511 50.4431 149.201 50.5904 150.755 50.143C151.864 49.8245 152.152 49.76 153 48.8928C152.653 48.3055 152.015 48.2926 151.489 48.3073C149.58 48.3607 147.666 48.0882 145.761 48.4473C145.547 48.4724 145.33 48.4347 145.137 48.3389C144.944 48.2431 144.783 48.0933 144.674 47.9078C144.29 47.2247 143.605 47.0517 142.995 47.0277C140.907 46.9155 138.815 47.1444 136.801 47.7053C135.092 48.2006 134.824 49.0806 135.087 50.5941C135.349 52.1075 135.584 53.5657 136.07 55" stroke="white" stroke-width="1.5" stroke-linecap="round" stroke-linejoin="round"/>
<path d="M114 111C114.49 111.919 114.95 112.859 115.478 113.758C116.615 115.675 117.896 117.46 120.066 118.159C121.167 118.498 122.297 118.719 123.44 118.819C123.96 118.87 124.464 119.14 125 118.905" stroke="white" stroke-width="1.5" stroke-linecap="round" stroke-linejoin="round"/>
<path d="M76 76.1153C75.2521 75.8602 74.5162 76.0883 73.7854 76.2267C73.6198 76.2433 73.4657 76.3231 73.3522 76.4512C73.2386 76.5793 73.1733 76.7467 73.1687 76.922C73.1227 77.585 72.9216 78.2354 72.8518 78.8984C72.661 80.7202 72.4974 82.5457 72.3407 84.373C72.3056 84.6196 72.184 84.8434 72 85" stroke="white" stroke-width="1.5" stroke-linecap="round" stroke-linejoin="round"/>
<path d="M93 72C90.8523 73.3679 88.5843 72.9722 86.364 72.8606C85.2415 72.8048 84.1261 72.6109 83 72.7942" stroke="white" stroke-width="1.5" stroke-linecap="round" stroke-linejoin="round"/>
<path d="M88 125C87.3876 125.33 86.7181 125.505 86.0388 125.512C83.6908 125.648 81.3463 125.834 79 126" stroke="white" stroke-width="1.5" stroke-linecap="round" stroke-linejoin="round"/>
<path d="M117 24.1372C116.516 24.5654 116.617 25.3082 116.235 25.7923C116.085 25.9806 115.982 26.2061 115.852 26.413C114.729 28.0909 114.007 28.4033 112.329 27.5157C111.231 26.9343 109.991 26.4813 109.252 25.2771C109.203 25.1985 109.134 25.0889 109.061 25.0703C107.188 24.7641 106.191 22.9496 104.66 22C104.259 22.6683 104.031 23.4406 104 24.2365" stroke="white" stroke-width="1.5" stroke-linecap="round" stroke-linejoin="round"/>
<path d="M152 57C153.073 58.3244 154.667 58.3878 156.264 58.628C157.51 58.8148 158.81 58.4612 160 59" stroke="white" stroke-width="1.5" stroke-linecap="round" stroke-linejoin="round"/>
<path d="M151 50C151.267 51.229 150.947 52.4972 151.322 53.7241C151.544 54.4793 151.411 55.3297 152 56" stroke="white" stroke-width="1.5" stroke-linecap="round" stroke-linejoin="round"/>
<path d="M60.8758 127C61.2411 125.766 60.7326 124.681 60.2323 123.62C60.0248 123.184 59.5017 123.015 59.0077 123.003C57.9262 122.974 56.8884 123.137 56 123.826" stroke="white" stroke-width="1.5" stroke-linecap="round" stroke-linejoin="round"/>
<path d="M82 73C81.8593 71.7314 81.3962 71.0615 80.6278 71.0045C79.7702 70.9446 79.319 71.4777 79 72.8518" stroke="white" stroke-width="1.5" stroke-linecap="round" stroke-linejoin="round"/>
<path d="M51 127C51.1494 126.724 51.3368 126.473 51.5556 126.257C52.682 125.113 53.9215 124.268 55.5 124.111C55.6916 124.091 55.9445 123.942 56.0652 124.025C57.3679 124.937 58.6897 124.138 60 124.114" stroke="white" stroke-width="1.5" stroke-linecap="round" stroke-linejoin="round"/>
<path d="M112.987 23C112.987 23.063 113.017 23.1469 112.987 23.1908C112.622 23.5916 113.228 24.1565 112.671 24.5267C112.115 24.897 111.443 24.6355 110.832 24.708C110.222 24.7805 109.537 24.5534 109 25" stroke="white" stroke-width="1.5" stroke-linecap="round" stroke-linejoin="round"/>
<path d="M146 51C146.261 51.9116 146.39 52.84 146.83 53.7368C146.987 54.1522 147.035 54.5774 146.975 55" stroke="white" stroke-width="1.5" stroke-linecap="round" stroke-linejoin="round"/>
<path d="M180 106C180.481 106.865 180.979 107.727 181.435 108.597C181.548 108.818 181.671 108.971 182 109" stroke="white" stroke-width="1.5" stroke-linecap="round" stroke-linejoin="round"/>
<path d="M165 56C164.357 56.6763 163.525 57.274 163 58" stroke="white" stroke-width="1.5" stroke-linecap="round" stroke-linejoin="round"/>
<path d="M107 24C106.4 24 105.82 24 105.2 24C104.824 24 104.434 24 104 24" stroke="white" stroke-width="1.5" stroke-linecap="round" stroke-linejoin="round"/>
<path d="M146 49C146.036 49.7092 147.192 50.2508 146.972 51" stroke="white" stroke-width="1.5" stroke-linecap="round" stroke-linejoin="round"/>
<path d="M78 73C77.7602 73.703 76.9734 74.1946 77.0007 75" stroke="white" stroke-width="1.5" stroke-linecap="round" stroke-linejoin="round"/>
</svg>
