<svg width="2637" height="673" viewBox="0 0 2637 673" fill="none" xmlns="http://www.w3.org/2000/svg">
<path d="M1 566.273C210.049 680.268 420.89 694.327 586.835 642.27C710.69 603.283 846.315 435.331 884.196 289.494C884.741 287.366 888.093 287.898 888.249 290.102L899.629 436.243C899.703 436.765 899.568 437.295 899.253 437.722C898.938 438.15 898.465 438.443 897.934 438.541C897.404 438.639 896.854 438.533 896.401 438.247C895.947 437.961 895.624 437.516 895.498 437.003C881.776 396.722 858.734 360.058 828.153 329.848C827.807 329.491 827.603 329.024 827.58 328.533C827.557 328.041 827.716 327.558 828.028 327.171C828.339 326.784 828.783 326.52 829.278 326.425C829.774 326.331 830.287 326.413 830.725 326.657C866.39 346.372 906.645 356.839 947.643 357.055C948.122 357.146 948.554 357.397 948.864 357.764C949.175 358.132 949.345 358.593 949.345 359.069C949.345 359.545 949.175 360.006 948.864 360.374C948.554 360.741 948.122 360.992 947.643 361.083C899.317 371.176 851.823 384.74 805.549 401.665C805.063 401.839 804.529 401.833 804.047 401.647C803.566 401.461 803.172 401.108 802.941 400.657C802.709 400.205 802.657 399.687 802.793 399.2C802.929 398.713 803.244 398.292 803.678 398.017C858.24 361.691 905.553 328.101 963.7 317.309C1089.04 294.054 1169.01 361.387 1220.92 392.393C1425.99 514.824 1543.22 513.988 1720.94 524.323C2132.8 547.958 2507.64 122.53 2635.7 2" stroke="#E4D1CC" stroke-width="3" stroke-miterlimit="10"/>
</svg>
