<svg width="2388" height="1036" viewBox="0 0 2388 1036" fill="none" xmlns="http://www.w3.org/2000/svg">

    <g transform="translate(0)">
        <path d="M250 413.781L404.5 507.031L363.5 331.281L500 213.031L320.25 197.781L250 32.0312L179.75 197.781L0 213.031L136.5 331.281L95.5 507.031L250 413.781Z" fill="#F7F7F7"/>
<path d="M103.906 12.5765L124.667 0L119.158 23.7031L137.5 39.6513L113.346 41.7081L103.906 64.0625L94.4664 41.7081L70.3125 39.6513L88.6547 23.7031L83.1453 0L103.906 12.5765Z" fill="#F7F7F7"/>
<path d="M1056 188.705L1002.44 221.032L1016.65 160.105L969.333 119.112L1031.65 113.825L1056 56.3652L1080.35 113.825L1142.67 119.112L1095.35 160.105L1109.56 221.032L1056 188.705Z" fill="#F7F7F7"/>
</g>

    <g transform="translate(500);">
        <path d="M1029.9 398.638L930.977 505.785L923.258 360.098L790.719 298.971L926.789 246.712L944.02 102.214L1035.83 215.12L1178.76 186.544L1099.43 309.056L1170.79 436.305L1029.9 398.638Z" fill="#F7F7F7"/>
<path d="M1086 47.0979L1059.43 31L1066.48 61.34L1043 81.7537L1073.92 84.3863L1086 113L1098.08 84.3863L1129 81.7537L1105.52 61.34L1112.57 31L1086 47.0979Z" fill="#F7F7F7"/>
<path d="M104 149.674L157.56 182.001L143.347 121.074L190.667 80.0807L128.353 74.794L104 17.334L79.6466 74.794L17.3333 80.0807L64.6532 121.074L50.4399 182.001L104 149.674Z" fill="#F7F7F7"/>
    </g>
</svg>



